G04*
G04 #@! TF.GenerationSoftware,Altium Limited,Altium Designer,20.2.7 (254)*
G04*
G04 Layer_Color=16711935*
%FSLAX43Y43*%
%MOMM*%
G71*
G04*
G04 #@! TF.SameCoordinates,2D86DA50-308A-4E10-9511-59D9385B8F58*
G04*
G04*
G04 #@! TF.FilePolarity,Negative*
G04*
G01*
G75*
%ADD12C,0.200*%
G04:AMPARAMS|DCode=39|XSize=1.04mm|YSize=0.84mm|CornerRadius=0.175mm|HoleSize=0mm|Usage=FLASHONLY|Rotation=180.000|XOffset=0mm|YOffset=0mm|HoleType=Round|Shape=RoundedRectangle|*
%AMROUNDEDRECTD39*
21,1,1.040,0.490,0,0,180.0*
21,1,0.690,0.840,0,0,180.0*
1,1,0.350,-0.345,0.245*
1,1,0.350,0.345,0.245*
1,1,0.350,0.345,-0.245*
1,1,0.350,-0.345,-0.245*
%
%ADD39ROUNDEDRECTD39*%
%ADD56O,1.540X0.940*%
%ADD57O,0.940X2.140*%
%ADD58O,1.340X2.840*%
%ADD59O,1.540X2.940*%
%ADD60O,1.340X2.540*%
%ADD61C,2.140*%
%ADD62C,1.000*%
%ADD75R,7.340X4.140*%
G36*
X4450Y18447D02*
X4623Y18481D01*
X4770Y18580D01*
X4869Y18727D01*
X4903Y18900D01*
X4869Y19073D01*
X4770Y19220D01*
X4623Y19319D01*
X4450Y19353D01*
D01*
X4277Y19319D01*
X4130Y19220D01*
X4031Y19073D01*
X3997Y18900D01*
X4031Y18727D01*
X4130Y18580D01*
X4277Y18481D01*
X4450Y18447D01*
D01*
D02*
G37*
G36*
X8750D02*
X8923Y18481D01*
X9070Y18580D01*
X9169Y18727D01*
X9203Y18900D01*
X9169Y19073D01*
X9070Y19220D01*
X8923Y19319D01*
X8750Y19353D01*
D01*
X8577Y19319D01*
X8430Y19220D01*
X8331Y19073D01*
X8297Y18900D01*
X8331Y18727D01*
X8430Y18580D01*
X8577Y18481D01*
X8750Y18447D01*
D01*
D02*
G37*
D12*
X900Y1500D02*
G03*
X1300Y1900I0J400D01*
G01*
X42600Y12200D02*
G03*
X43200Y12546I400J0D01*
G01*
X1300Y5500D02*
G03*
X900Y5900I-400J0D01*
G01*
X11600Y18600D02*
G03*
X12000Y19000I0J400D01*
G01*
X63700Y1900D02*
G03*
X64100Y1500I400J0D01*
G01*
Y5900D02*
G03*
X63700Y5500I0J-400D01*
G01*
X60900Y12200D02*
G03*
X61500Y12546I400J0D01*
G01*
X29800D02*
G03*
X30400Y12200I200J-346D01*
G01*
X26100Y18000D02*
G03*
X26500Y17600I400J0D01*
G01*
X48100Y12546D02*
G03*
X48700Y12200I200J-346D01*
G01*
X9700Y19000D02*
G03*
X10100Y18600I400J0D01*
G01*
X13400Y20400D02*
G03*
X13800Y20800I0J400D01*
G01*
X26900Y17600D02*
G03*
X27300Y18000I0J400D01*
G01*
X29800Y12546D02*
Y22000D01*
X27300D02*
X29800D01*
X61500Y12546D02*
Y21150D01*
X65000D01*
X64100Y5900D02*
X65000D01*
Y21150D01*
X0Y5900D02*
Y20400D01*
X65000Y0D02*
Y1500D01*
X26100Y18000D02*
Y22400D01*
X0Y0D02*
X65000D01*
X43200Y22000D02*
X48100D01*
X30400Y12200D02*
X42600D01*
X0Y20400D02*
X9700D01*
X12000D02*
X13400D01*
X0Y5900D02*
X900D01*
X12000Y19000D02*
Y20400D01*
X26500Y17600D02*
X26900D01*
X13800Y20800D02*
Y22400D01*
X63700Y1900D02*
Y5500D01*
X0Y0D02*
Y1500D01*
X48700Y12200D02*
X60900D01*
X0Y1500D02*
X900D01*
X48100Y12546D02*
Y22000D01*
X43200Y12546D02*
Y22000D01*
X9700Y19000D02*
Y20400D01*
X64100Y1500D02*
X65000D01*
X27300Y18000D02*
Y22000D01*
X1300Y1900D02*
Y5500D01*
X10100Y18600D02*
X11600D01*
X13800Y22400D02*
X26100D01*
D39*
X24550Y19700D02*
D03*
Y21100D02*
D03*
X21383Y21100D02*
D03*
Y19700D02*
D03*
X18217Y19700D02*
D03*
Y21100D02*
D03*
X15050D02*
D03*
Y19700D02*
D03*
D56*
X17300Y17800D02*
D03*
X22300D02*
D03*
D57*
X23300Y20500D02*
D03*
X16300D02*
D03*
D58*
X44345Y12300D02*
D03*
X46955D02*
D03*
X62645D02*
D03*
D59*
X44345Y19350D02*
D03*
X28655D02*
D03*
X46955D02*
D03*
X62645D02*
D03*
D60*
X28655Y12300D02*
D03*
D61*
X45400Y8400D02*
D03*
X45400Y15400D02*
D03*
X13500Y12200D02*
D03*
X13500Y15300D02*
D03*
D62*
X4450Y18900D02*
D03*
X8750D02*
D03*
D75*
X27000Y2400D02*
D03*
X46700D02*
D03*
M02*
