G04*
G04 #@! TF.GenerationSoftware,Altium Limited,Altium Designer,20.2.7 (254)*
G04*
G04 Layer_Color=65535*
%FSLAX43Y43*%
%MOMM*%
G71*
G04*
G04 #@! TF.SameCoordinates,2D86DA50-308A-4E10-9511-59D9385B8F58*
G04*
G04*
G04 #@! TF.FilePolarity,Positive*
G04*
G01*
G75*
%ADD10C,0.250*%
%ADD11C,0.300*%
%ADD12C,0.200*%
%ADD13C,0.152*%
%ADD14C,0.152*%
%ADD15C,0.150*%
D10*
X21476Y12883D02*
G03*
X21476Y12883I-125J0D01*
G01*
D11*
X3614Y17600D02*
G03*
X3614Y17600I-100J0D01*
G01*
D12*
X39875Y7350D02*
Y7450D01*
X38725Y7350D02*
Y7450D01*
X3350Y1875D02*
X3450D01*
X3350Y725D02*
X3450D01*
X2002Y11053D02*
X2752D01*
X36000Y5900D02*
X36700D01*
X36000D02*
Y6600D01*
Y8900D02*
X36700D01*
X36000Y8200D02*
Y8900D01*
X22316Y2023D02*
X23023Y1316D01*
X23377Y3084D02*
X24084Y2377D01*
X16000Y600D02*
Y3200D01*
X6000Y600D02*
X16000D01*
X6000D02*
Y3200D01*
X16000Y8000D02*
Y10600D01*
X6000D02*
X16000D01*
X6000Y8000D02*
Y10600D01*
X3350Y6425D02*
X3450D01*
X3350Y7575D02*
X3450D01*
X3350Y3775D02*
X3450D01*
X3350Y2625D02*
X3450D01*
X3350Y5675D02*
X3450D01*
X3350Y4525D02*
X3450D01*
X27171Y1958D02*
X27242Y2029D01*
X26358Y2771D02*
X26429Y2842D01*
X19225Y1650D02*
Y1750D01*
X20375Y1650D02*
Y1750D01*
X18475Y1650D02*
Y1750D01*
X17325Y1650D02*
Y1750D01*
X15125Y12350D02*
Y12450D01*
X16275Y12350D02*
Y12450D01*
X17025Y12350D02*
Y12450D01*
X18175Y12350D02*
Y12450D01*
X19725Y14950D02*
Y15050D01*
X20875Y14950D02*
Y15050D01*
X21400Y15000D02*
Y15700D01*
X22100D01*
X24400Y15000D02*
Y15700D01*
X23700D02*
X24400D01*
X57025Y7350D02*
Y7450D01*
X58175Y7350D02*
Y7450D01*
X54200Y8200D02*
Y8900D01*
X54900D01*
X54200Y5900D02*
Y6600D01*
Y5900D02*
X54900D01*
X31642Y1952D02*
X32308Y953D01*
Y1952D02*
X31642Y953D01*
X32641D02*
X32974D01*
X32808D01*
Y1619D01*
X32641D01*
X33474Y1952D02*
Y953D01*
X33974D01*
X34141Y1119D01*
Y1286D01*
X33974Y1453D01*
X33474D01*
X33974D01*
X34141Y1619D01*
Y1786D01*
X33974Y1952D01*
X33474D01*
X34641Y1619D02*
X34974D01*
X35140Y1453D01*
Y953D01*
X34641D01*
X34474Y1119D01*
X34641Y1286D01*
X35140D01*
X35474Y953D02*
Y1619D01*
X35974D01*
X36140Y1453D01*
Y953D01*
X36473D02*
Y1952D01*
Y1286D02*
X36973Y1619D01*
X36473Y1286D02*
X36973Y953D01*
X38473Y1952D02*
Y1286D01*
X38806Y953D01*
X39139Y1286D01*
Y1952D01*
X39472Y953D02*
X39806D01*
X39639D01*
Y1952D01*
X39472Y1786D01*
X40305Y953D02*
Y1119D01*
X40472D01*
Y953D01*
X40305D01*
X41139Y1786D02*
X41305Y1952D01*
X41638D01*
X41805Y1786D01*
Y1119D01*
X41638Y953D01*
X41305D01*
X41139Y1119D01*
Y1786D01*
X44138D02*
X44304Y1952D01*
X44637D01*
X44804Y1786D01*
Y1119D01*
X44637Y953D01*
X44304D01*
X44138Y1119D01*
Y1786D01*
X45137D02*
X45304Y1952D01*
X45637D01*
X45804Y1786D01*
Y1619D01*
X45637Y1453D01*
X45804Y1286D01*
Y1119D01*
X45637Y953D01*
X45304D01*
X45137Y1119D01*
Y1286D01*
X45304Y1453D01*
X45137Y1619D01*
Y1786D01*
X45304Y1453D02*
X45637D01*
X46137Y953D02*
Y1119D01*
X46304D01*
Y953D01*
X46137D01*
X46970Y1786D02*
X47137Y1952D01*
X47470D01*
X47636Y1786D01*
Y1119D01*
X47470Y953D01*
X47137D01*
X46970Y1119D01*
Y1786D01*
X47970Y1119D02*
X48136Y953D01*
X48470D01*
X48636Y1119D01*
Y1786D01*
X48470Y1952D01*
X48136D01*
X47970Y1786D01*
Y1619D01*
X48136Y1453D01*
X48636D01*
X48969Y953D02*
Y1119D01*
X49136D01*
Y953D01*
X48969D01*
X50469D02*
X49802D01*
X50469Y1619D01*
Y1786D01*
X50302Y1952D01*
X49969D01*
X49802Y1786D01*
X50802D02*
X50969Y1952D01*
X51302D01*
X51469Y1786D01*
Y1119D01*
X51302Y953D01*
X50969D01*
X50802Y1119D01*
Y1786D01*
X52468Y953D02*
X51802D01*
X52468Y1619D01*
Y1786D01*
X52302Y1952D01*
X51968D01*
X51802Y1786D01*
X53468Y953D02*
X52801D01*
X53468Y1619D01*
Y1786D01*
X53301Y1952D01*
X52968D01*
X52801Y1786D01*
X60733Y4366D02*
X60600Y4500D01*
X60333D01*
X60200Y4366D01*
Y3833D01*
X60333Y3700D01*
X60600D01*
X60733Y3833D01*
Y4100D01*
X60467D01*
X61000Y3700D02*
Y4500D01*
X61533Y3700D01*
Y4500D01*
X61799D02*
Y3700D01*
X62199D01*
X62333Y3833D01*
Y4366D01*
X62199Y4500D01*
X61799D01*
X56800Y3700D02*
Y4500D01*
X57333Y3700D01*
Y4500D01*
X57600D02*
X58133D01*
X57866D01*
Y3700D01*
X58933Y4366D02*
X58799Y4500D01*
X58533D01*
X58399Y4366D01*
Y3833D01*
X58533Y3700D01*
X58799D01*
X58933Y3833D01*
X900Y1500D02*
G03*
X1300Y1900I0J400D01*
G01*
X42600Y12200D02*
G03*
X43200Y12546I400J0D01*
G01*
X1300Y5500D02*
G03*
X900Y5900I-400J0D01*
G01*
X11600Y18600D02*
G03*
X12000Y19000I0J400D01*
G01*
X63700Y1900D02*
G03*
X64100Y1500I400J0D01*
G01*
Y5900D02*
G03*
X63700Y5500I0J-400D01*
G01*
X60900Y12200D02*
G03*
X61500Y12546I400J0D01*
G01*
X29800D02*
G03*
X30400Y12200I200J-346D01*
G01*
X26100Y18000D02*
G03*
X26500Y17600I400J0D01*
G01*
X48100Y12546D02*
G03*
X48700Y12200I200J-346D01*
G01*
X9700Y19000D02*
G03*
X10100Y18600I400J0D01*
G01*
X13400Y20400D02*
G03*
X13800Y20800I0J400D01*
G01*
X26900Y17600D02*
G03*
X27300Y18000I0J400D01*
G01*
X29800Y12546D02*
Y22000D01*
X27300D02*
X29800D01*
X61500Y12546D02*
Y21150D01*
X65000D01*
X64100Y5900D02*
X65000D01*
Y21150D01*
X0Y5900D02*
Y20400D01*
X65000Y0D02*
Y1500D01*
X26100Y18000D02*
Y22400D01*
X0Y0D02*
X65000D01*
X43200Y22000D02*
X48100D01*
X30400Y12200D02*
X42600D01*
X0Y20400D02*
X9700D01*
X12000D02*
X13400D01*
X0Y5900D02*
X900D01*
X12000Y19000D02*
Y20400D01*
X26500Y17600D02*
X26900D01*
X13800Y20800D02*
Y22400D01*
X63700Y1900D02*
Y5500D01*
X0Y0D02*
Y1500D01*
X48700Y12200D02*
X60900D01*
X0Y1500D02*
X900D01*
X48100Y12546D02*
Y22000D01*
X43200Y12546D02*
Y22000D01*
X9700Y19000D02*
Y20400D01*
X64100Y1500D02*
X65000D01*
X27300Y18000D02*
Y22000D01*
X1300Y1900D02*
Y5500D01*
X10100Y18600D02*
X11600D01*
X13800Y22400D02*
X26100D01*
D13*
X15700Y21620D02*
Y23100D01*
Y17650D02*
Y19380D01*
X23900Y17650D02*
Y19380D01*
Y21620D02*
Y23100D01*
D14*
X15700Y17650D02*
X16300D01*
X15700Y23100D02*
X23900D01*
X23300Y17650D02*
X23900D01*
X9051Y20538D02*
Y21082D01*
X4149D02*
X9051D01*
X4149Y20538D02*
Y21082D01*
Y17323D02*
Y18183D01*
X9051Y17323D02*
Y18183D01*
D15*
X3100Y19533D02*
X2983Y19650D01*
X2750D01*
X2633Y19533D01*
Y19417D01*
X2750Y19300D01*
X2983D01*
X3100Y19183D01*
Y19067D01*
X2983Y18950D01*
X2750D01*
X2633Y19067D01*
X3333Y18950D02*
X3567D01*
X3450D01*
Y19650D01*
X3333Y19533D01*
X41167Y11150D02*
X41633Y10450D01*
Y11150D02*
X41167Y10450D01*
X41867D02*
Y11150D01*
X42217D01*
X42333Y11033D01*
Y10800D01*
X42217Y10683D01*
X41867D01*
X43033Y10450D02*
X42567D01*
X43033Y10917D01*
Y11033D01*
X42916Y11150D01*
X42683D01*
X42567Y11033D01*
X4533Y10450D02*
Y9750D01*
X5000D01*
X5233D02*
X5467D01*
X5350D01*
Y10450D01*
X5233Y10333D01*
X24750Y19967D02*
X25450Y20433D01*
X24750D02*
X25450Y19967D01*
Y20667D02*
X24750D01*
Y21017D01*
X24867Y21133D01*
X25100D01*
X25217Y21017D01*
Y20667D01*
X24867Y21367D02*
X24750Y21483D01*
Y21716D01*
X24867Y21833D01*
X24983D01*
X25100Y21716D01*
Y21600D01*
Y21716D01*
X25217Y21833D01*
X25333D01*
X25450Y21716D01*
Y21483D01*
X25333Y21367D01*
X19123Y12118D02*
X19535Y11705D01*
X19700D01*
X19865Y11870D01*
Y12035D01*
X19453Y12447D01*
X20112Y12118D02*
X20277Y12282D01*
X20195Y12200D01*
X19700Y12695D01*
Y12530D01*
X26750Y14417D02*
X26050D01*
Y14767D01*
X26167Y14883D01*
X26400D01*
X26517Y14767D01*
Y14417D01*
Y14650D02*
X26750Y14883D01*
X26633Y15117D02*
X26750Y15233D01*
Y15467D01*
X26633Y15583D01*
X26167D01*
X26050Y15467D01*
Y15233D01*
X26167Y15117D01*
X26283D01*
X26400Y15233D01*
Y15583D01*
X21617Y350D02*
Y1050D01*
X21967D01*
X22083Y933D01*
Y700D01*
X21967Y583D01*
X21617D01*
X21850D02*
X22083Y350D01*
X22317Y933D02*
X22433Y1050D01*
X22667D01*
X22783Y933D01*
Y817D01*
X22667Y700D01*
X22783Y583D01*
Y467D01*
X22667Y350D01*
X22433D01*
X22317Y467D01*
Y583D01*
X22433Y700D01*
X22317Y817D01*
Y933D01*
X22433Y700D02*
X22667D01*
X5743Y13762D02*
X5043D01*
Y14112D01*
X5160Y14229D01*
X5393D01*
X5510Y14112D01*
Y13762D01*
Y13995D02*
X5743Y14229D01*
X5043Y14462D02*
Y14928D01*
X5160D01*
X5626Y14462D01*
X5743D01*
X8643Y13762D02*
X7943D01*
Y14112D01*
X8060Y14229D01*
X8293D01*
X8410Y14112D01*
Y13762D01*
Y13995D02*
X8643Y14229D01*
X7943Y14928D02*
X8060Y14695D01*
X8293Y14462D01*
X8526D01*
X8643Y14578D01*
Y14812D01*
X8526Y14928D01*
X8410D01*
X8293Y14812D01*
Y14462D01*
X55050Y1917D02*
X54350D01*
Y2267D01*
X54467Y2383D01*
X54700D01*
X54817Y2267D01*
Y1917D01*
Y2150D02*
X55050Y2383D01*
X54350Y3083D02*
Y2617D01*
X54700D01*
X54583Y2850D01*
Y2967D01*
X54700Y3083D01*
X54933D01*
X55050Y2967D01*
Y2733D01*
X54933Y2617D01*
X7243Y13762D02*
X6543D01*
Y14112D01*
X6660Y14229D01*
X6893D01*
X7010Y14112D01*
Y13762D01*
Y13995D02*
X7243Y14229D01*
Y14812D02*
X6543D01*
X6893Y14462D01*
Y14928D01*
X4243Y13762D02*
X3543D01*
Y14112D01*
X3660Y14229D01*
X3893D01*
X4010Y14112D01*
Y13762D01*
Y13995D02*
X4243Y14229D01*
X3660Y14462D02*
X3543Y14578D01*
Y14812D01*
X3660Y14928D01*
X3776D01*
X3893Y14812D01*
Y14695D01*
Y14812D01*
X4010Y14928D01*
X4126D01*
X4243Y14812D01*
Y14578D01*
X4126Y14462D01*
X10243Y13762D02*
X9543D01*
Y14112D01*
X9660Y14229D01*
X9893D01*
X10010Y14112D01*
Y13762D01*
Y13995D02*
X10243Y14229D01*
Y14928D02*
Y14462D01*
X9776Y14928D01*
X9660D01*
X9543Y14812D01*
Y14578D01*
X9660Y14462D01*
X11763Y13741D02*
X11063D01*
Y14090D01*
X11180Y14207D01*
X11413D01*
X11529Y14090D01*
Y13741D01*
Y13974D02*
X11763Y14207D01*
Y14440D02*
Y14674D01*
Y14557D01*
X11063D01*
X11180Y14440D01*
X34883Y5967D02*
Y6433D01*
X34767Y6550D01*
X34533D01*
X34417Y6433D01*
Y5967D01*
X34533Y5850D01*
X34767D01*
X34650Y6083D02*
X34883Y5850D01*
X34767D02*
X34883Y5967D01*
X35117Y6433D02*
X35233Y6550D01*
X35467D01*
X35583Y6433D01*
Y6317D01*
X35467Y6200D01*
X35350D01*
X35467D01*
X35583Y6083D01*
Y5967D01*
X35467Y5850D01*
X35233D01*
X35117Y5967D01*
X53083Y6067D02*
Y6533D01*
X52967Y6650D01*
X52733D01*
X52617Y6533D01*
Y6067D01*
X52733Y5950D01*
X52967D01*
X52850Y6183D02*
X53083Y5950D01*
X52967D02*
X53083Y6067D01*
X53783Y5950D02*
X53317D01*
X53783Y6417D01*
Y6533D01*
X53667Y6650D01*
X53433D01*
X53317Y6533D01*
X24201Y16311D02*
Y16778D01*
X24084Y16894D01*
X23851D01*
X23734Y16778D01*
Y16311D01*
X23851Y16194D01*
X24084D01*
X23967Y16428D02*
X24201Y16194D01*
X24084D02*
X24201Y16311D01*
X24434Y16194D02*
X24667D01*
X24551D01*
Y16894D01*
X24434Y16778D01*
X59584Y11150D02*
X60050Y10450D01*
Y11150D02*
X59584Y10450D01*
X60283D02*
Y11150D01*
X60633D01*
X60750Y11033D01*
Y10800D01*
X60633Y10683D01*
X60283D01*
X60983Y10450D02*
X61216D01*
X61100D01*
Y11150D01*
X60983Y11033D01*
X2051Y13682D02*
X2751D01*
Y14032D01*
X2634Y14148D01*
X2168D01*
X2051Y14032D01*
Y13682D01*
Y14848D02*
Y14382D01*
X2401D01*
X2285Y14615D01*
Y14732D01*
X2401Y14848D01*
X2634D01*
X2751Y14732D01*
Y14498D01*
X2634Y14382D01*
X29648Y4600D02*
Y4765D01*
X29483Y4930D01*
X29318D01*
X28988Y4600D01*
Y4435D01*
X29153Y4270D01*
X29318D01*
X29400Y4022D02*
X29565Y3857D01*
X29483Y3940D01*
X29978Y4435D01*
X29813D01*
X30307Y4105D02*
X30637Y3775D01*
X30555Y3692D01*
X29895D01*
X29813Y3610D01*
X28748Y3700D02*
Y3865D01*
X28583Y4030D01*
X28418D01*
X28088Y3700D01*
Y3535D01*
X28253Y3370D01*
X28418D01*
X28500Y3122D02*
X28665Y2957D01*
X28583Y3040D01*
X29078Y3535D01*
X28913D01*
X29737Y2875D02*
X29490Y2957D01*
X29160D01*
X28995Y2792D01*
Y2628D01*
X29160Y2463D01*
X29325D01*
X29407Y2545D01*
Y2710D01*
X29160Y2957D01*
X5067Y892D02*
X4950Y775D01*
Y542D01*
X5067Y425D01*
X5533D01*
X5650Y542D01*
Y775D01*
X5533Y892D01*
X5650Y1125D02*
Y1358D01*
Y1242D01*
X4950D01*
X5067Y1125D01*
X4950Y2175D02*
Y1708D01*
X5300D01*
X5183Y1941D01*
Y2058D01*
X5300Y2175D01*
X5533D01*
X5650Y2058D01*
Y1825D01*
X5533Y1708D01*
X2992Y8633D02*
X2875Y8750D01*
X2642D01*
X2525Y8633D01*
Y8167D01*
X2642Y8050D01*
X2875D01*
X2992Y8167D01*
X3225Y8050D02*
X3458D01*
X3342D01*
Y8750D01*
X3225Y8633D01*
X4275Y8050D02*
X3808D01*
X4275Y8517D01*
Y8633D01*
X4158Y8750D01*
X3925D01*
X3808Y8633D01*
X18054Y5258D02*
X17938Y5375D01*
X17704D01*
X17588Y5258D01*
Y4792D01*
X17704Y4675D01*
X17938D01*
X18054Y4792D01*
X18288Y4675D02*
X18521D01*
X18404D01*
Y5375D01*
X18288Y5258D01*
X18871Y4675D02*
X19104D01*
X18987D01*
Y5375D01*
X18871Y5258D01*
X40467Y6992D02*
X40350Y6875D01*
Y6642D01*
X40467Y6525D01*
X40933D01*
X41050Y6642D01*
Y6875D01*
X40933Y6992D01*
X41050Y7225D02*
Y7458D01*
Y7342D01*
X40350D01*
X40467Y7225D01*
Y7808D02*
X40350Y7925D01*
Y8158D01*
X40467Y8275D01*
X40933D01*
X41050Y8158D01*
Y7925D01*
X40933Y7808D01*
X40467D01*
X25153Y882D02*
X24988D01*
X24823Y718D01*
Y553D01*
X25153Y223D01*
X25318D01*
X25482Y388D01*
Y553D01*
X25647Y718D02*
X25812D01*
X25977Y882D01*
Y1047D01*
X25647Y1377D01*
X25482D01*
X25318Y1212D01*
Y1047D01*
X25400Y965D01*
X25565D01*
X25812Y1212D01*
X20916Y1701D02*
X20800Y1584D01*
Y1351D01*
X20916Y1234D01*
X21383D01*
X21500Y1351D01*
Y1584D01*
X21383Y1701D01*
X20916Y1934D02*
X20800Y2050D01*
Y2284D01*
X20916Y2400D01*
X21033D01*
X21150Y2284D01*
X21266Y2400D01*
X21383D01*
X21500Y2284D01*
Y2050D01*
X21383Y1934D01*
X21266D01*
X21150Y2050D01*
X21033Y1934D01*
X20916D01*
X21150Y2050D02*
Y2284D01*
X16436Y1750D02*
X16319Y1633D01*
Y1400D01*
X16436Y1283D01*
X16902D01*
X17019Y1400D01*
Y1633D01*
X16902Y1750D01*
X16319Y1983D02*
Y2449D01*
X16436D01*
X16902Y1983D01*
X17019D01*
X17416Y14601D02*
X17300Y14484D01*
Y14251D01*
X17416Y14134D01*
X17883D01*
X18000Y14251D01*
Y14484D01*
X17883Y14601D01*
X17300Y15300D02*
X17416Y15067D01*
X17650Y14834D01*
X17883D01*
X18000Y14950D01*
Y15184D01*
X17883Y15300D01*
X17766D01*
X17650Y15184D01*
Y14834D01*
X15716Y14601D02*
X15600Y14484D01*
Y14251D01*
X15716Y14134D01*
X16183D01*
X16300Y14251D01*
Y14484D01*
X16183Y14601D01*
X15600Y15300D02*
Y14834D01*
X15950D01*
X15833Y15067D01*
Y15184D01*
X15950Y15300D01*
X16183D01*
X16300Y15184D01*
Y14950D01*
X16183Y14834D01*
X28548Y2143D02*
Y2308D01*
X28383Y2472D01*
X28218D01*
X27888Y2143D01*
Y1978D01*
X28053Y1813D01*
X28218D01*
X28548Y1318D02*
X29043Y1813D01*
X28548D01*
X28878Y1483D01*
X27448Y1068D02*
Y1233D01*
X27283Y1397D01*
X27118D01*
X26788Y1068D01*
Y903D01*
X26953Y738D01*
X27118D01*
X27613Y903D02*
X27778D01*
X27943Y738D01*
Y573D01*
X27861Y490D01*
X27696D01*
X27613Y573D01*
X27696Y490D01*
Y325D01*
X27613Y243D01*
X27448D01*
X27283Y408D01*
Y573D01*
X58667Y7283D02*
X58550Y7167D01*
Y6933D01*
X58667Y6817D01*
X59133D01*
X59250Y6933D01*
Y7167D01*
X59133Y7283D01*
X59250Y7983D02*
Y7517D01*
X58783Y7983D01*
X58667D01*
X58550Y7867D01*
Y7633D01*
X58667Y7517D01*
X18816Y14934D02*
X18700Y14817D01*
Y14584D01*
X18816Y14467D01*
X19283D01*
X19400Y14584D01*
Y14817D01*
X19283Y14934D01*
X19400Y15167D02*
Y15400D01*
Y15284D01*
X18700D01*
X18816Y15167D01*
M02*
