G04*
G04 #@! TF.GenerationSoftware,Altium Limited,Altium Designer,20.2.7 (254)*
G04*
G04 Layer_Physical_Order=1*
G04 Layer_Color=12465579*
%FSLAX43Y43*%
%MOMM*%
G71*
G04*
G04 #@! TF.SameCoordinates,2D86DA50-308A-4E10-9511-59D9385B8F58*
G04*
G04*
G04 #@! TF.FilePolarity,Positive*
G04*
G01*
G75*
%ADD11C,0.300*%
%ADD12C,0.200*%
%ADD15C,0.150*%
G04:AMPARAMS|DCode=16|XSize=1.35mm|YSize=0.95mm|CornerRadius=0.142mm|HoleSize=0mm|Usage=FLASHONLY|Rotation=0.000|XOffset=0mm|YOffset=0mm|HoleType=Round|Shape=RoundedRectangle|*
%AMROUNDEDRECTD16*
21,1,1.350,0.665,0,0,0.0*
21,1,1.065,0.950,0,0,0.0*
1,1,0.285,0.532,-0.333*
1,1,0.285,-0.532,-0.333*
1,1,0.285,-0.532,0.333*
1,1,0.285,0.532,0.333*
%
%ADD16ROUNDEDRECTD16*%
G04:AMPARAMS|DCode=17|XSize=1.35mm|YSize=0.95mm|CornerRadius=0.142mm|HoleSize=0mm|Usage=FLASHONLY|Rotation=270.000|XOffset=0mm|YOffset=0mm|HoleType=Round|Shape=RoundedRectangle|*
%AMROUNDEDRECTD17*
21,1,1.350,0.665,0,0,270.0*
21,1,1.065,0.950,0,0,270.0*
1,1,0.285,-0.333,-0.532*
1,1,0.285,-0.333,0.532*
1,1,0.285,0.333,0.532*
1,1,0.285,0.333,-0.532*
%
%ADD17ROUNDEDRECTD17*%
G04:AMPARAMS|DCode=18|XSize=0.9mm|YSize=0.7mm|CornerRadius=0.105mm|HoleSize=0mm|Usage=FLASHONLY|Rotation=45.000|XOffset=0mm|YOffset=0mm|HoleType=Round|Shape=RoundedRectangle|*
%AMROUNDEDRECTD18*
21,1,0.900,0.490,0,0,45.0*
21,1,0.690,0.700,0,0,45.0*
1,1,0.210,0.417,0.071*
1,1,0.210,-0.071,-0.417*
1,1,0.210,-0.417,-0.071*
1,1,0.210,0.071,0.417*
%
%ADD18ROUNDEDRECTD18*%
G04:AMPARAMS|DCode=19|XSize=0.9mm|YSize=0.7mm|CornerRadius=0.105mm|HoleSize=0mm|Usage=FLASHONLY|Rotation=180.000|XOffset=0mm|YOffset=0mm|HoleType=Round|Shape=RoundedRectangle|*
%AMROUNDEDRECTD19*
21,1,0.900,0.490,0,0,180.0*
21,1,0.690,0.700,0,0,180.0*
1,1,0.210,-0.345,0.245*
1,1,0.210,0.345,0.245*
1,1,0.210,0.345,-0.245*
1,1,0.210,-0.345,-0.245*
%
%ADD19ROUNDEDRECTD19*%
G04:AMPARAMS|DCode=20|XSize=0.9mm|YSize=0.9mm|CornerRadius=0.225mm|HoleSize=0mm|Usage=FLASHONLY|Rotation=270.000|XOffset=0mm|YOffset=0mm|HoleType=Round|Shape=RoundedRectangle|*
%AMROUNDEDRECTD20*
21,1,0.900,0.450,0,0,270.0*
21,1,0.450,0.900,0,0,270.0*
1,1,0.450,-0.225,-0.225*
1,1,0.450,-0.225,0.225*
1,1,0.450,0.225,0.225*
1,1,0.450,0.225,-0.225*
%
%ADD20ROUNDEDRECTD20*%
G04:AMPARAMS|DCode=21|XSize=1.7mm|YSize=1.05mm|CornerRadius=0.263mm|HoleSize=0mm|Usage=FLASHONLY|Rotation=45.000|XOffset=0mm|YOffset=0mm|HoleType=Round|Shape=RoundedRectangle|*
%AMROUNDEDRECTD21*
21,1,1.700,0.525,0,0,45.0*
21,1,1.175,1.050,0,0,45.0*
1,1,0.525,0.601,0.230*
1,1,0.525,-0.230,-0.601*
1,1,0.525,-0.601,-0.230*
1,1,0.525,0.230,0.601*
%
%ADD21ROUNDEDRECTD21*%
%ADD22P,6.675X4X90.0*%
G04:AMPARAMS|DCode=23|XSize=0.8mm|YSize=0.3mm|CornerRadius=0mm|HoleSize=0mm|Usage=FLASHONLY|Rotation=45.000|XOffset=0mm|YOffset=0mm|HoleType=Round|Shape=Rectangle|*
%AMROTATEDRECTD23*
4,1,4,-0.177,-0.389,-0.389,-0.177,0.177,0.389,0.389,0.177,-0.177,-0.389,0.0*
%
%ADD23ROTATEDRECTD23*%

G04:AMPARAMS|DCode=24|XSize=0.8mm|YSize=0.3mm|CornerRadius=0mm|HoleSize=0mm|Usage=FLASHONLY|Rotation=315.000|XOffset=0mm|YOffset=0mm|HoleType=Round|Shape=Rectangle|*
%AMROTATEDRECTD24*
4,1,4,-0.389,0.177,-0.177,0.389,0.389,-0.177,0.177,-0.389,-0.389,0.177,0.0*
%
%ADD24ROTATEDRECTD24*%

G04:AMPARAMS|DCode=25|XSize=1.3mm|YSize=0.42mm|CornerRadius=0.105mm|HoleSize=0mm|Usage=FLASHONLY|Rotation=90.000|XOffset=0mm|YOffset=0mm|HoleType=Round|Shape=RoundedRectangle|*
%AMROUNDEDRECTD25*
21,1,1.300,0.210,0,0,90.0*
21,1,1.090,0.420,0,0,90.0*
1,1,0.210,0.105,0.545*
1,1,0.210,0.105,-0.545*
1,1,0.210,-0.105,-0.545*
1,1,0.210,-0.105,0.545*
%
%ADD25ROUNDEDRECTD25*%
%ADD26R,0.420X1.300*%
G04:AMPARAMS|DCode=27|XSize=4mm|YSize=3.5mm|CornerRadius=0.455mm|HoleSize=0mm|Usage=FLASHONLY|Rotation=270.000|XOffset=0mm|YOffset=0mm|HoleType=Round|Shape=RoundedRectangle|*
%AMROUNDEDRECTD27*
21,1,4.000,2.590,0,0,270.0*
21,1,3.090,3.500,0,0,270.0*
1,1,0.910,-1.295,-1.545*
1,1,0.910,-1.295,1.545*
1,1,0.910,1.295,1.545*
1,1,0.910,1.295,-1.545*
%
%ADD27ROUNDEDRECTD27*%
%ADD28R,1.500X2.200*%
%ADD29R,1.600X1.000*%
%ADD30R,1.300X0.600*%
%ADD31R,1.000X1.200*%
G04:AMPARAMS|DCode=32|XSize=1.35mm|YSize=0.95mm|CornerRadius=0.142mm|HoleSize=0mm|Usage=FLASHONLY|Rotation=135.000|XOffset=0mm|YOffset=0mm|HoleType=Round|Shape=RoundedRectangle|*
%AMROUNDEDRECTD32*
21,1,1.350,0.665,0,0,135.0*
21,1,1.065,0.950,0,0,135.0*
1,1,0.285,-0.141,0.612*
1,1,0.285,0.612,-0.141*
1,1,0.285,0.141,-0.612*
1,1,0.285,-0.612,0.141*
%
%ADD32ROUNDEDRECTD32*%
G04:AMPARAMS|DCode=33|XSize=0.9mm|YSize=0.7mm|CornerRadius=0.105mm|HoleSize=0mm|Usage=FLASHONLY|Rotation=270.000|XOffset=0mm|YOffset=0mm|HoleType=Round|Shape=RoundedRectangle|*
%AMROUNDEDRECTD33*
21,1,0.900,0.490,0,0,270.0*
21,1,0.690,0.700,0,0,270.0*
1,1,0.210,-0.245,-0.345*
1,1,0.210,-0.245,0.345*
1,1,0.210,0.245,0.345*
1,1,0.210,0.245,-0.345*
%
%ADD33ROUNDEDRECTD33*%
G04:AMPARAMS|DCode=34|XSize=0.9mm|YSize=0.9mm|CornerRadius=0.225mm|HoleSize=0mm|Usage=FLASHONLY|Rotation=180.000|XOffset=0mm|YOffset=0mm|HoleType=Round|Shape=RoundedRectangle|*
%AMROUNDEDRECTD34*
21,1,0.900,0.450,0,0,180.0*
21,1,0.450,0.900,0,0,180.0*
1,1,0.450,-0.225,0.225*
1,1,0.450,0.225,0.225*
1,1,0.450,0.225,-0.225*
1,1,0.450,-0.225,-0.225*
%
%ADD34ROUNDEDRECTD34*%
%ADD35R,1.600X1.600*%
%ADD63C,0.130*%
%ADD64C,0.500*%
%ADD65O,1.400X0.800*%
%ADD66O,0.800X2.000*%
%ADD67O,1.200X2.700*%
%ADD68O,1.400X2.800*%
%ADD69O,1.200X2.400*%
%ADD70C,2.000*%
%ADD71C,0.900*%
%ADD72C,0.500*%
G36*
X13998Y19938D02*
X13979Y19951D01*
X13960Y19960D01*
X13941Y19967D01*
X13922Y19970D01*
X13904Y19970D01*
X13886Y19967D01*
X13868Y19961D01*
X13850Y19952D01*
X13833Y19939D01*
X13816Y19924D01*
X13797Y20089D01*
X13812Y20104D01*
X13854Y20152D01*
X13867Y20170D01*
X13919Y20246D01*
X13932Y20266D01*
X13998Y19938D01*
D02*
G37*
G36*
X13987Y19272D02*
X13966Y19293D01*
X13944Y19312D01*
X13923Y19328D01*
X13902Y19343D01*
X13880Y19355D01*
X13859Y19365D01*
X13838Y19372D01*
X13817Y19378D01*
X13796Y19381D01*
X13775Y19382D01*
Y19512D01*
X13796Y19513D01*
X13817Y19517D01*
X13838Y19522D01*
X13859Y19530D01*
X13880Y19540D01*
X13902Y19552D01*
X13923Y19566D01*
X13944Y19583D01*
X13966Y19601D01*
X13987Y19622D01*
Y19272D01*
D02*
G37*
G36*
X13971Y18525D02*
X13950Y18546D01*
X13928Y18565D01*
X13907Y18581D01*
X13886Y18595D01*
X13864Y18608D01*
X13843Y18617D01*
X13822Y18625D01*
X13801Y18631D01*
X13780Y18634D01*
X13759Y18635D01*
Y18765D01*
X13780Y18766D01*
X13801Y18769D01*
X13822Y18775D01*
X13843Y18783D01*
X13864Y18792D01*
X13886Y18805D01*
X13907Y18819D01*
X13928Y18835D01*
X13950Y18854D01*
X13971Y18875D01*
X13971Y18525D01*
D02*
G37*
G36*
X25794Y18000D02*
X25794D01*
X25818Y17817D01*
X25889Y17647D01*
X25904Y17627D01*
X25841Y17500D01*
X23178D01*
X23106Y17627D01*
X23140Y17800D01*
X23099Y18007D01*
X22982Y18182D01*
X22807Y18299D01*
X22600Y18340D01*
X22000D01*
X21793Y18299D01*
X21618Y18182D01*
X21567Y18106D01*
X21440Y18144D01*
Y18580D01*
X20760D01*
X20760Y18580D01*
X20633Y18569D01*
X20555Y18585D01*
X20345D01*
X20253Y18566D01*
X20211Y18538D01*
X20125Y18523D01*
X20039Y18538D01*
X19997Y18566D01*
X19905Y18585D01*
X19695D01*
X19603Y18566D01*
X19561Y18538D01*
X19475Y18523D01*
X19389Y18538D01*
X19347Y18566D01*
X19255Y18585D01*
X19045D01*
X18953Y18566D01*
X18876Y18514D01*
X18837Y18547D01*
X18825Y18565D01*
X18724Y18632D01*
X18650Y18647D01*
Y17800D01*
Y16953D01*
X18724Y16968D01*
X18825Y17035D01*
X18837Y17053D01*
X18876Y17086D01*
X18953Y17034D01*
X19045Y17015D01*
X19082D01*
X19134Y16888D01*
X18399Y16153D01*
X18356Y16089D01*
X18341Y16013D01*
Y13946D01*
X18214Y13865D01*
X18150Y13878D01*
Y13200D01*
X17750D01*
Y13200D01*
X17600D01*
Y13050D01*
X16718D01*
Y13022D01*
X16582D01*
Y13050D01*
X15700D01*
Y13200D01*
X15550D01*
Y13200D01*
X15150D01*
Y13878D01*
X15072Y13863D01*
X14997Y13972D01*
X15171Y14183D01*
X15357Y14531D01*
X15471Y14908D01*
X15510Y15300D01*
X15471Y15692D01*
X15357Y16069D01*
X15171Y16417D01*
X14921Y16721D01*
X14617Y16971D01*
X14269Y17157D01*
X14100Y17208D01*
Y18272D01*
X14150Y18313D01*
X14298Y18342D01*
X14424Y18426D01*
X14508Y18552D01*
X14537Y18700D01*
X14508Y18848D01*
X14424Y18974D01*
X14397Y18992D01*
Y19145D01*
X14440Y19173D01*
X14524Y19299D01*
X14553Y19447D01*
X14524Y19596D01*
X14440Y19721D01*
X14418Y19736D01*
Y19863D01*
X14421Y19865D01*
X14505Y19990D01*
X14534Y20139D01*
X14505Y20287D01*
X14421Y20413D01*
X14295Y20497D01*
X14179Y20520D01*
X14118Y20581D01*
X14085Y20643D01*
X14106Y20800D01*
X14106D01*
X14106Y20800D01*
Y22094D01*
X25794D01*
Y18000D01*
D02*
G37*
G36*
X9601Y18501D02*
X9747Y18389D01*
X9917Y18318D01*
X10100Y18294D01*
Y18294D01*
X10100Y18294D01*
X11600D01*
X11600Y18294D01*
Y18294D01*
X11638Y18299D01*
X11698Y18179D01*
X8959Y15441D01*
X8916Y15376D01*
X8901Y15300D01*
Y13664D01*
X8774Y13579D01*
X8745Y13585D01*
X8055D01*
X7963Y13566D01*
X7886Y13514D01*
X7834Y13437D01*
X7815Y13345D01*
Y12855D01*
X7834Y12763D01*
X7886Y12686D01*
X7963Y12634D01*
X7968Y12633D01*
Y12239D01*
X7936Y12232D01*
X7835Y12165D01*
X7768Y12064D01*
X7744Y11945D01*
Y11850D01*
X8400D01*
Y11700D01*
X8550D01*
Y11205D01*
X8556Y11198D01*
X8575Y11179D01*
X8550D01*
Y11144D01*
X8644D01*
X8725Y11046D01*
X8717Y11006D01*
X8746Y10858D01*
X8830Y10732D01*
X8956Y10648D01*
X9104Y10618D01*
X9252Y10648D01*
X9378Y10732D01*
X9430Y10809D01*
X9434Y10810D01*
X9572Y10807D01*
X9626Y10726D01*
X9752Y10642D01*
X9900Y10613D01*
X10048Y10642D01*
X10174Y10726D01*
X10258Y10852D01*
X10287Y11000D01*
X10268Y11098D01*
X10258Y11148D01*
X10348Y11241D01*
X10414Y11286D01*
X10466Y11363D01*
X10485Y11455D01*
Y11945D01*
X10466Y12037D01*
X10414Y12114D01*
X10337Y12166D01*
X10332Y12167D01*
Y12633D01*
X10337Y12634D01*
X10414Y12686D01*
X10466Y12763D01*
X10485Y12855D01*
Y13345D01*
X10466Y13437D01*
X10414Y13514D01*
X10337Y13566D01*
X10245Y13585D01*
X10099D01*
Y15650D01*
X11084Y16635D01*
X11201Y16586D01*
Y13585D01*
X11055D01*
X10963Y13566D01*
X10886Y13514D01*
X10834Y13437D01*
X10815Y13345D01*
Y12855D01*
X10834Y12763D01*
X10886Y12686D01*
X10963Y12634D01*
X10968Y12633D01*
Y12167D01*
X10963Y12166D01*
X10886Y12114D01*
X10834Y12037D01*
X10815Y11945D01*
Y11455D01*
X10834Y11363D01*
X10886Y11286D01*
X10952Y11241D01*
X11042Y11148D01*
X11032Y11098D01*
X11013Y11000D01*
X11042Y10852D01*
X11126Y10726D01*
X11252Y10642D01*
X11375Y10618D01*
Y9974D01*
X10927Y9526D01*
X10924Y9519D01*
X10918Y9516D01*
X10742Y9302D01*
X10740Y9295D01*
X10734Y9291D01*
X10580Y9061D01*
X10579Y9054D01*
X10573Y9049D01*
X10443Y8805D01*
X10442Y8798D01*
X10437Y8793D01*
X10331Y8537D01*
Y8530D01*
X10327Y8524D01*
X10246Y8260D01*
X10247Y8252D01*
X10243Y8246D01*
X10189Y7975D01*
X10108Y7880D01*
X3075D01*
X3075Y7880D01*
Y7880D01*
X2948Y7879D01*
X2932Y7882D01*
X2750D01*
Y7000D01*
X2600D01*
Y7000D01*
Y6450D01*
X1922D01*
X1945Y6334D01*
X1949Y6327D01*
X1882Y6200D01*
X946D01*
X900Y6206D01*
Y6206D01*
X306D01*
Y18600D01*
X3953D01*
X4032Y18482D01*
X4224Y18354D01*
X4224Y18354D01*
X4234Y18352D01*
X4234Y18352D01*
X4234Y18352D01*
X4270Y18330D01*
Y16870D01*
X4601D01*
Y16400D01*
X4616Y16324D01*
X4659Y16259D01*
X6701Y14218D01*
Y13585D01*
X6555D01*
X6463Y13566D01*
X6386Y13514D01*
X6334Y13437D01*
X6315Y13345D01*
Y12855D01*
X6334Y12763D01*
X6386Y12686D01*
X6463Y12634D01*
X6468Y12633D01*
Y12167D01*
X6463Y12166D01*
X6386Y12114D01*
X6334Y12037D01*
X6315Y11945D01*
Y11455D01*
X6334Y11363D01*
X6386Y11286D01*
X6463Y11234D01*
X6555Y11215D01*
X7236D01*
X7254Y11204D01*
X7262Y11196D01*
X7332Y11109D01*
X7333Y11103D01*
X7313Y11000D01*
X7342Y10852D01*
X7426Y10726D01*
X7552Y10642D01*
X7700Y10613D01*
X7848Y10642D01*
X7974Y10726D01*
X8058Y10852D01*
X8087Y11000D01*
X8078Y11046D01*
X8159Y11144D01*
X8250D01*
Y11179D01*
X8225D01*
X8244Y11198D01*
X8250Y11205D01*
Y11550D01*
X7741D01*
X7731Y11538D01*
X7617Y11496D01*
X7485Y11628D01*
Y11945D01*
X7466Y12037D01*
X7414Y12114D01*
X7337Y12166D01*
X7332Y12167D01*
Y12633D01*
X7337Y12634D01*
X7414Y12686D01*
X7466Y12763D01*
X7485Y12855D01*
Y13345D01*
X7466Y13437D01*
X7414Y13514D01*
X7337Y13566D01*
X7245Y13585D01*
X7099D01*
Y14300D01*
X7084Y14376D01*
X7041Y14441D01*
X4999Y16482D01*
Y16870D01*
X5530D01*
Y18330D01*
X4870D01*
X4831Y18457D01*
X4868Y18482D01*
X4947Y18600D01*
X8208D01*
X8260Y18520D01*
X8199Y18400D01*
X7600D01*
Y18028D01*
X7530Y17930D01*
X7473Y17930D01*
X5670D01*
Y16670D01*
X7530D01*
Y16702D01*
X7600Y16800D01*
X7657Y16800D01*
X8150D01*
Y17600D01*
X8300D01*
Y17750D01*
X9000D01*
Y18369D01*
X9168Y18482D01*
X9247Y18600D01*
X9525D01*
X9601Y18501D01*
D02*
G37*
G36*
X21310Y17150D02*
X21560Y16900D01*
X23300Y16900D01*
Y16900D01*
X23360D01*
X23470Y16854D01*
X23554Y16770D01*
X23600Y16660D01*
X23600Y16600D01*
X23600Y15600D01*
X23600D01*
X23600Y15545D01*
X23558Y15444D01*
X23481Y15367D01*
X23380Y15325D01*
X20825Y15325D01*
Y15325D01*
X20128D01*
X20075Y15452D01*
X20224Y15601D01*
X20300D01*
X20376Y15616D01*
X20441Y15659D01*
X20484Y15724D01*
X20499Y15800D01*
X20484Y15876D01*
X20441Y15941D01*
X20376Y15984D01*
X20300Y15999D01*
X20142D01*
X20127Y15996D01*
X20010Y16074D01*
X20000Y16090D01*
Y16200D01*
X20890Y17090D01*
Y17800D01*
X21310D01*
Y17150D01*
D02*
G37*
G36*
X20850Y13500D02*
X20600Y13250D01*
X20000D01*
X19750Y13500D01*
Y14200D01*
X20850D01*
Y13500D01*
D02*
G37*
G36*
X22389Y12791D02*
X22365Y12781D01*
X22344Y12770D01*
X22326Y12757D01*
X22310Y12742D01*
X22296Y12727D01*
X22285Y12710D01*
X22276Y12691D01*
X22270Y12671D01*
X22266Y12650D01*
X22265Y12627D01*
X22135Y12687D01*
X22134Y12704D01*
X22132Y12723D01*
X22129Y12743D01*
X22118Y12788D01*
X22111Y12813D01*
X22081Y12899D01*
X22068Y12931D01*
X22389Y12791D01*
D02*
G37*
G36*
X20246Y12600D02*
X20224Y12621D01*
X20203Y12640D01*
X20182Y12656D01*
X20160Y12671D01*
X20139Y12683D01*
X20118Y12693D01*
X20096Y12700D01*
X20075Y12706D01*
X20054Y12709D01*
X20033Y12710D01*
Y12840D01*
X20054Y12841D01*
X20075Y12845D01*
X20096Y12850D01*
X20118Y12858D01*
X20139Y12868D01*
X20160Y12880D01*
X20182Y12894D01*
X20203Y12911D01*
X20224Y12929D01*
X20246Y12950D01*
Y12600D01*
D02*
G37*
G36*
X22893Y12361D02*
X22875Y12339D01*
X22858Y12318D01*
X22844Y12296D01*
X22832Y12275D01*
X22822Y12254D01*
X22814Y12233D01*
X22809Y12211D01*
X22805Y12190D01*
X22804Y12169D01*
X22674D01*
X22673Y12190D01*
X22670Y12211D01*
X22664Y12233D01*
X22657Y12254D01*
X22647Y12275D01*
X22635Y12296D01*
X22620Y12318D01*
X22604Y12339D01*
X22585Y12361D01*
X22564Y12382D01*
X22914D01*
X22893Y12361D01*
D02*
G37*
G36*
X23302Y11881D02*
X23293Y11873D01*
X23284Y11863D01*
X23277Y11852D01*
X23271Y11840D01*
X23267Y11826D01*
X23263Y11810D01*
X23260Y11793D01*
X23258Y11775D01*
X23258Y11755D01*
X23128D01*
X23127Y11775D01*
X23126Y11793D01*
X23123Y11810D01*
X23119Y11826D01*
X23114Y11840D01*
X23108Y11852D01*
X23101Y11863D01*
X23093Y11873D01*
X23084Y11881D01*
X23074Y11887D01*
X23312D01*
X23302Y11881D01*
D02*
G37*
G36*
X49300Y11900D02*
X52300Y11900D01*
X52300Y11900D01*
X52380Y11900D01*
X52527Y11839D01*
X52639Y11727D01*
X52700Y11580D01*
X52700Y11500D01*
X52700Y9600D01*
X52700Y8800D01*
X52700Y8800D01*
Y8720D01*
X52639Y8573D01*
X52527Y8461D01*
X52380Y8400D01*
X52300D01*
X49300Y8400D01*
X49300Y8400D01*
X49220Y8400D01*
X49073Y8461D01*
X48961Y8573D01*
X48900Y8720D01*
Y8800D01*
X48900Y11500D01*
X48900Y11500D01*
X48900Y11580D01*
X48961Y11727D01*
X49073Y11839D01*
X49220Y11900D01*
X49300Y11900D01*
D02*
G37*
G36*
X23748Y11425D02*
X23722Y11413D01*
X23672Y11386D01*
X23648Y11371D01*
X23600Y11338D01*
X23577Y11319D01*
X23532Y11280D01*
X23510Y11259D01*
X23388Y11349D01*
X23404Y11367D01*
X23417Y11385D01*
X23427Y11403D01*
X23435Y11422D01*
X23440Y11441D01*
X23442Y11461D01*
X23441Y11481D01*
X23437Y11501D01*
X23431Y11522D01*
X23422Y11544D01*
X23748Y11425D01*
D02*
G37*
G36*
X9166Y11377D02*
X9169Y11356D01*
X9175Y11335D01*
X9183Y11314D01*
X9193Y11293D01*
X9205Y11272D01*
X9219Y11250D01*
X9236Y11229D01*
X9255Y11208D01*
X9276Y11187D01*
X8926Y11181D01*
X8947Y11203D01*
X8965Y11225D01*
X8982Y11247D01*
X8996Y11269D01*
X9008Y11290D01*
X9018Y11312D01*
X9025Y11333D01*
X9031Y11354D01*
X9034Y11375D01*
X9035Y11396D01*
X9165Y11398D01*
X9166Y11377D01*
D02*
G37*
G36*
X9976Y11366D02*
X9979Y11344D01*
X9984Y11323D01*
X9991Y11301D01*
X10000Y11280D01*
X10011Y11259D01*
X10024Y11239D01*
X10039Y11218D01*
X10056Y11198D01*
X10075Y11179D01*
X9725D01*
X9744Y11198D01*
X9761Y11218D01*
X9776Y11239D01*
X9789Y11259D01*
X9800Y11280D01*
X9809Y11301D01*
X9816Y11323D01*
X9821Y11344D01*
X9824Y11366D01*
X9825Y11388D01*
X9975D01*
X9976Y11366D01*
D02*
G37*
G36*
X11476Y11366D02*
X11479Y11344D01*
X11484Y11323D01*
X11491Y11301D01*
X11500Y11280D01*
X11511Y11259D01*
X11524Y11239D01*
X11539Y11218D01*
X11556Y11198D01*
X11575Y11179D01*
X11225D01*
X11244Y11198D01*
X11261Y11218D01*
X11276Y11239D01*
X11289Y11259D01*
X11300Y11280D01*
X11309Y11301D01*
X11316Y11323D01*
X11321Y11344D01*
X11324Y11366D01*
X11325Y11388D01*
X11475D01*
X11476Y11366D01*
D02*
G37*
G36*
X7583Y11341D02*
X7599Y11328D01*
X7617Y11315D01*
X7636Y11302D01*
X7678Y11279D01*
X7702Y11268D01*
X7753Y11247D01*
X7781Y11237D01*
X7465Y11085D01*
X7472Y11109D01*
X7477Y11131D01*
X7479Y11153D01*
X7479Y11175D01*
X7476Y11195D01*
X7470Y11215D01*
X7462Y11234D01*
X7452Y11253D01*
X7439Y11271D01*
X7423Y11288D01*
X7569Y11355D01*
X7583Y11341D01*
D02*
G37*
G36*
X15175Y12075D02*
Y12075D01*
X16225D01*
D01*
X17075D01*
D01*
X17525D01*
X18275Y11363D01*
Y10161D01*
X19018Y9418D01*
X18452Y8853D01*
X17613Y9691D01*
X15897Y9691D01*
X15896Y9691D01*
X15895Y9691D01*
X15391Y9691D01*
X13200Y7500D01*
X13200Y3600D01*
X15200Y1600D01*
X20550Y1600D01*
X20700Y1750D01*
Y2458D01*
X21821Y3579D01*
X22652Y4410D01*
X22663Y4536D01*
X22666Y4539D01*
X22663Y4542D01*
X22671Y4633D01*
X22060Y5244D01*
X22632Y5804D01*
X23186Y5250D01*
X23781Y4655D01*
X23781Y4655D01*
X23841Y4595D01*
X23905Y4439D01*
X23905Y4270D01*
X23841Y4113D01*
X23781Y4054D01*
X22975Y3248D01*
X23017Y3310D01*
X23035Y3400D01*
Y3400D01*
X23017Y3490D01*
X22966Y3566D01*
X22890Y3617D01*
X22800Y3635D01*
X22710Y3617D01*
X22634Y3566D01*
X22583Y3490D01*
X22567Y3406D01*
X22192D01*
X22116Y3391D01*
X22052Y3348D01*
X22009Y3284D01*
X21994Y3208D01*
X22009Y3132D01*
X22052Y3067D01*
X22116Y3024D01*
X22192Y3009D01*
X22605D01*
X22671Y2943D01*
X22564Y2836D01*
X22148Y2421D01*
Y948D01*
X21625Y425D01*
X11675Y425D01*
X11675D01*
X11540Y425D01*
X11274Y478D01*
X11024Y581D01*
X10798Y732D01*
X10607Y923D01*
X10456Y1149D01*
X10353Y1399D01*
X10300Y1665D01*
X10300Y1800D01*
X10300Y7534D01*
Y7673D01*
X10327Y7948D01*
X10381Y8219D01*
X10461Y8484D01*
X10567Y8739D01*
X10697Y8983D01*
X10851Y9213D01*
X11026Y9427D01*
X11124Y9524D01*
X12864Y11264D01*
X12930Y11213D01*
X13205Y11099D01*
X13500Y11060D01*
X13795Y11099D01*
X14070Y11213D01*
X14306Y11394D01*
X14487Y11630D01*
X14601Y11905D01*
X14623Y12075D01*
X15175D01*
D02*
G37*
G36*
X24064Y10953D02*
X24035Y10956D01*
X24008Y10957D01*
X23982Y10957D01*
X23958Y10954D01*
X23935Y10949D01*
X23913Y10943D01*
X23893Y10934D01*
X23874Y10924D01*
X23857Y10911D01*
X23841Y10897D01*
X23762Y11002D01*
X23775Y11016D01*
X23788Y11033D01*
X23799Y11052D01*
X23810Y11072D01*
X23819Y11094D01*
X23828Y11118D01*
X23835Y11144D01*
X23847Y11200D01*
X23852Y11231D01*
X24064Y10953D01*
D02*
G37*
G36*
X24790Y10129D02*
X24775Y10148D01*
X24760Y10165D01*
X24743Y10179D01*
X24725Y10192D01*
X24707Y10203D01*
X24688Y10212D01*
X24668Y10219D01*
X24648Y10224D01*
X24626Y10227D01*
X24604Y10228D01*
X24605Y10358D01*
X24628Y10359D01*
X24651Y10362D01*
X24673Y10366D01*
X24694Y10373D01*
X24715Y10381D01*
X24736Y10391D01*
X24755Y10403D01*
X24774Y10417D01*
X24793Y10432D01*
X24810Y10450D01*
X24790Y10129D01*
D02*
G37*
G36*
X40749Y8549D02*
X40749Y8549D01*
Y8468D01*
X40718Y8309D01*
X40656Y8159D01*
X40565Y8024D01*
X40450Y7909D01*
X40315Y7819D01*
X40165Y7757D01*
X40006Y7725D01*
X39825D01*
Y7725D01*
X38775D01*
Y7725D01*
X37020Y7725D01*
X36919Y7767D01*
X36842Y7844D01*
X36800Y7945D01*
Y8867D01*
X36824Y8989D01*
X36800Y9111D01*
Y9139D01*
X36869Y9305D01*
X36995Y9431D01*
X37160Y9500D01*
X38850Y9500D01*
X38850Y9500D01*
X38928Y9508D01*
X38967Y9524D01*
X38967Y9524D01*
X38968Y9524D01*
X39072Y9567D01*
X39182Y9677D01*
X39242Y9821D01*
X39249Y9899D01*
X39249Y10850D01*
X40749D01*
X40749Y8549D01*
D02*
G37*
G36*
X59049D02*
X59049Y8549D01*
Y8468D01*
X59018Y8309D01*
X58956Y8159D01*
X58865Y8024D01*
X58750Y7909D01*
X58615Y7819D01*
X58465Y7757D01*
X58306Y7725D01*
X58125D01*
Y7725D01*
X57075D01*
Y7725D01*
X55320Y7725D01*
X55219Y7767D01*
X55142Y7844D01*
X55100Y7945D01*
X55100Y8867D01*
X55124Y8989D01*
X55107Y9076D01*
X55146Y9170D01*
X55230Y9254D01*
X55340Y9300D01*
X55400Y9300D01*
X57100Y9300D01*
X57100Y9300D01*
Y9300D01*
X57188Y9309D01*
X57216Y9320D01*
X57350Y9376D01*
X57474Y9500D01*
X57541Y9662D01*
X57549Y9749D01*
X57549Y10850D01*
X59049D01*
X59049Y8549D01*
D02*
G37*
G36*
X25767Y9352D02*
X25759Y9348D01*
X25751Y9344D01*
X25745Y9337D01*
X25739Y9329D01*
X25734Y9320D01*
X25730Y9309D01*
X25727Y9296D01*
X25725Y9282D01*
X25724Y9266D01*
X25724Y9249D01*
X25574D01*
X25573Y9272D01*
X25568Y9332D01*
X25565Y9347D01*
X25562Y9361D01*
X25558Y9373D01*
X25553Y9383D01*
X25547Y9392D01*
X25541Y9398D01*
X25767Y9352D01*
D02*
G37*
G36*
X17522Y9415D02*
X17547Y9382D01*
X17581Y9341D01*
X17676Y9240D01*
X17705Y9210D01*
X17626Y9077D01*
X17608Y9094D01*
X17590Y9107D01*
X17573Y9117D01*
X17555Y9124D01*
X17537Y9128D01*
X17520Y9129D01*
X17502Y9126D01*
X17485Y9121D01*
X17467Y9112D01*
X17450Y9101D01*
X17513Y9429D01*
X17522Y9415D01*
D02*
G37*
G36*
X16838Y9216D02*
X16835Y9192D01*
X16835Y9168D01*
X16836Y9146D01*
X16840Y9125D01*
X16847Y9104D01*
X16855Y9084D01*
X16866Y9065D01*
X16880Y9048D01*
X16895Y9030D01*
X16763Y8950D01*
X16748Y8965D01*
X16731Y8978D01*
X16713Y8991D01*
X16693Y9003D01*
X16672Y9014D01*
X16649Y9024D01*
X16600Y9042D01*
X16574Y9049D01*
X16546Y9056D01*
X16843Y9241D01*
X16838Y9216D01*
D02*
G37*
G36*
X26282Y8933D02*
X26270Y8921D01*
X26259Y8907D01*
X26250Y8892D01*
X26242Y8876D01*
X26236Y8858D01*
X26231Y8838D01*
X26228Y8818D01*
X26225Y8796D01*
X26225Y8772D01*
X26075D01*
X26074Y8796D01*
X26072Y8818D01*
X26068Y8838D01*
X26063Y8858D01*
X26057Y8876D01*
X26049Y8892D01*
X26040Y8907D01*
X26029Y8921D01*
X26017Y8933D01*
X26004Y8944D01*
X26295D01*
X26282Y8933D01*
D02*
G37*
G36*
X54891Y8789D02*
X54872Y8768D01*
X54856Y8746D01*
X54841Y8725D01*
X54829Y8703D01*
X54819Y8682D01*
X54812Y8661D01*
X54806Y8640D01*
X54803Y8619D01*
X54802Y8598D01*
X54672D01*
X54671Y8619D01*
X54667Y8640D01*
X54662Y8661D01*
X54654Y8682D01*
X54644Y8703D01*
X54632Y8725D01*
X54618Y8746D01*
X54601Y8768D01*
X54583Y8789D01*
X54562Y8811D01*
X54912D01*
X54891Y8789D01*
D02*
G37*
G36*
X36635Y8832D02*
X36596Y8754D01*
X36587Y8730D01*
X36573Y8684D01*
X36568Y8663D01*
X36566Y8643D01*
X36565Y8624D01*
X36435Y8589D01*
X36434Y8611D01*
X36430Y8633D01*
X36424Y8653D01*
X36415Y8673D01*
X36404Y8691D01*
X36391Y8709D01*
X36375Y8726D01*
X36357Y8742D01*
X36336Y8758D01*
X36313Y8772D01*
X36651Y8861D01*
X36635Y8832D01*
D02*
G37*
G36*
X16176Y8516D02*
X16084Y8425D01*
X16058Y8435D01*
X16057Y8617D01*
X16176Y8516D01*
D02*
G37*
G36*
X24107Y8218D02*
X24100Y8223D01*
X24090Y8227D01*
X24077Y8231D01*
X24060Y8234D01*
X24039Y8237D01*
X23988Y8241D01*
X23886Y8243D01*
Y8543D01*
X23923Y8543D01*
X24060Y8552D01*
X24077Y8555D01*
X24090Y8559D01*
X24100Y8563D01*
X24107Y8568D01*
Y8218D01*
D02*
G37*
G36*
X23127Y8563D02*
X23135Y8559D01*
X23146Y8555D01*
X23160Y8552D01*
X23176Y8549D01*
X23215Y8545D01*
X23264Y8543D01*
X23292Y8543D01*
X23292Y8243D01*
X23264Y8243D01*
X23176Y8237D01*
X23160Y8234D01*
X23146Y8231D01*
X23135Y8227D01*
X23127Y8223D01*
X23121Y8218D01*
X22942Y8393D01*
X23121Y8568D01*
X23127Y8563D01*
D02*
G37*
G36*
X22942Y8393D02*
X22764Y8218D01*
X22757Y8223D01*
X22749Y8227D01*
X22738Y8231D01*
X22724Y8234D01*
X22708Y8237D01*
X22620Y8243D01*
X22592Y8243D01*
X22592Y8543D01*
X22620Y8543D01*
X22669Y8545D01*
X22708Y8549D01*
X22724Y8552D01*
X22738Y8555D01*
X22749Y8559D01*
X22757Y8563D01*
X22764Y8568D01*
X22942Y8393D01*
D02*
G37*
G36*
X21783Y8563D02*
X21792Y8559D01*
X21803Y8555D01*
X21816Y8552D01*
X21832Y8549D01*
X21871Y8545D01*
X21920Y8543D01*
X21949Y8543D01*
X21949Y8243D01*
X21920Y8243D01*
X21832Y8237D01*
X21816Y8234D01*
X21803Y8231D01*
X21792Y8227D01*
X21783Y8223D01*
X21777Y8218D01*
X21777Y8568D01*
X21783Y8563D01*
D02*
G37*
G36*
X24481Y8235D02*
X24481Y8227D01*
X24483Y8218D01*
X24488Y8207D01*
X24495Y8195D01*
X24505Y8181D01*
X24517Y8166D01*
X24549Y8130D01*
X24568Y8110D01*
X24321Y7933D01*
X24156Y8179D01*
X24484Y8241D01*
X24481Y8235D01*
D02*
G37*
G36*
X32000Y11900D02*
X34000Y11900D01*
X34000Y11900D01*
X34080Y11900D01*
X34227Y11839D01*
X34339Y11727D01*
X34400Y11580D01*
X34400Y11500D01*
X34400Y9600D01*
X35200Y8800D01*
X35200Y7850D01*
X34950Y7600D01*
X34400Y7600D01*
X31800Y7600D01*
X31600Y7800D01*
X31600Y11500D01*
Y11500D01*
X31600Y11580D01*
X31661Y11727D01*
X31773Y11839D01*
X31920Y11900D01*
X32000Y11900D01*
D02*
G37*
G36*
X24245Y6242D02*
X24264Y6227D01*
X24282Y6214D01*
X24301Y6202D01*
X24321Y6193D01*
X24340Y6185D01*
X24360Y6179D01*
X24381Y6175D01*
X24401Y6173D01*
X24422Y6172D01*
X24179Y5920D01*
X24178Y5941D01*
X24175Y5962D01*
X24170Y5982D01*
X24164Y6002D01*
X24156Y6022D01*
X24146Y6041D01*
X24134Y6060D01*
X24121Y6079D01*
X24105Y6097D01*
X24088Y6115D01*
X24227Y6259D01*
X24245Y6242D01*
D02*
G37*
G36*
X58150Y5900D02*
X57900Y5650D01*
X57300D01*
X57050Y5900D01*
Y6600D01*
X58150D01*
Y5900D01*
D02*
G37*
G36*
X39850D02*
X39600Y5650D01*
X39000D01*
X38750Y5900D01*
Y6600D01*
X39850D01*
Y5900D01*
D02*
G37*
G36*
X25329Y5876D02*
X25341Y5819D01*
X25349Y5794D01*
X25357Y5770D01*
X25367Y5748D01*
X25377Y5727D01*
X25389Y5709D01*
X25401Y5692D01*
X25415Y5677D01*
X25336Y5572D01*
X25320Y5587D01*
X25302Y5599D01*
X25283Y5610D01*
X25263Y5618D01*
X25241Y5625D01*
X25218Y5630D01*
X25194Y5632D01*
X25168Y5633D01*
X25141Y5632D01*
X25113Y5628D01*
X25324Y5907D01*
X25329Y5876D01*
D02*
G37*
G36*
X2600Y5100D02*
Y4550D01*
X1900D01*
X1650Y4800D01*
Y5400D01*
X1900Y5650D01*
X2600D01*
Y5100D01*
D02*
G37*
G36*
X28724Y4551D02*
X28694Y4550D01*
X28666Y4548D01*
X28639Y4545D01*
X28614Y4540D01*
X28590Y4533D01*
X28568Y4525D01*
X28548Y4516D01*
X28529Y4505D01*
X28511Y4492D01*
X28496Y4478D01*
X28404Y4570D01*
X28418Y4586D01*
X28431Y4603D01*
X28442Y4622D01*
X28451Y4642D01*
X28459Y4664D01*
X28466Y4688D01*
X28471Y4713D01*
X28474Y4740D01*
X28476Y4768D01*
X28477Y4798D01*
X28724Y4551D01*
D02*
G37*
G36*
X20897Y4368D02*
X20879Y4349D01*
X20865Y4331D01*
X20852Y4312D01*
X20843Y4293D01*
X20835Y4275D01*
X20830Y4256D01*
X20828Y4238D01*
X20828Y4219D01*
X20831Y4200D01*
X20836Y4182D01*
X20523Y4338D01*
X20541Y4344D01*
X20559Y4352D01*
X20577Y4361D01*
X20595Y4371D01*
X20631Y4394D01*
X20649Y4408D01*
X20684Y4439D01*
X20702Y4456D01*
X20897Y4368D01*
D02*
G37*
G36*
X21656Y4295D02*
X21638Y4277D01*
X21623Y4258D01*
X21610Y4240D01*
X21598Y4220D01*
X21588Y4201D01*
X21580Y4182D01*
X21574Y4162D01*
X21570Y4141D01*
X21567Y4121D01*
X21567Y4100D01*
X21319Y4347D01*
X21340Y4348D01*
X21361Y4351D01*
X21381Y4355D01*
X21401Y4361D01*
X21420Y4369D01*
X21440Y4379D01*
X21459Y4390D01*
X21478Y4404D01*
X21496Y4419D01*
X21514Y4436D01*
X21656Y4295D01*
D02*
G37*
G36*
X17670Y6659D02*
X17734Y6616D01*
X17810Y6601D01*
X17992D01*
X17993Y6600D01*
X18533D01*
X19159Y7226D01*
X20785Y5600D01*
X19762Y4585D01*
X19355D01*
X19263Y4566D01*
X19186Y4514D01*
X19134Y4437D01*
X19115Y4345D01*
Y3800D01*
X18756D01*
Y3850D01*
X18200D01*
X17644D01*
Y3800D01*
X15500D01*
Y6600D01*
Y7400D01*
X16929D01*
X17670Y6659D01*
D02*
G37*
G36*
X30000Y5250D02*
X30000Y4676D01*
X28120Y2795D01*
X28114Y2782D01*
X28102Y2774D01*
X28065Y2718D01*
X27614Y2267D01*
X27557Y2229D01*
X27434Y2241D01*
X26234Y3441D01*
X26397Y3603D01*
X26459Y3696D01*
X26480Y3805D01*
X26459Y3914D01*
X26397Y4007D01*
X26513Y4123D01*
X26943Y3694D01*
X27060Y3721D01*
X27085Y3716D01*
X28152D01*
X28228Y3731D01*
X28292Y3774D01*
X28500Y3982D01*
X28543Y4047D01*
X28558Y4123D01*
Y4351D01*
X28575Y4368D01*
X28590Y4373D01*
X28600Y4383D01*
X28606Y4387D01*
X28613Y4391D01*
X28622Y4395D01*
X28633Y4399D01*
X28646Y4403D01*
X28662Y4406D01*
X28680Y4408D01*
X28700Y4410D01*
X28726Y4410D01*
X28740Y4416D01*
X28875Y4443D01*
X29001Y4527D01*
X29085Y4652D01*
X29114Y4801D01*
X29085Y4949D01*
X29001Y5075D01*
X28875Y5159D01*
X28854Y5163D01*
X28873Y5295D01*
X29113Y5534D01*
X29164Y5610D01*
X29182Y5700D01*
X29182Y5700D01*
Y5902D01*
X29299Y5951D01*
X30000Y5250D01*
D02*
G37*
G36*
X55954Y3700D02*
X55935Y3678D01*
X55919Y3657D01*
X55905Y3636D01*
X55893Y3614D01*
X55883Y3593D01*
X55875Y3572D01*
X55869Y3551D01*
X55866Y3530D01*
X55865Y3509D01*
X55735D01*
X55734Y3530D01*
X55731Y3551D01*
X55725Y3572D01*
X55717Y3593D01*
X55708Y3614D01*
X55695Y3636D01*
X55681Y3657D01*
X55665Y3678D01*
X55646Y3700D01*
X55625Y3721D01*
X55975D01*
X55954Y3700D01*
D02*
G37*
G36*
X2600Y3200D02*
Y2650D01*
X1900D01*
X1650Y2900D01*
Y3500D01*
X1900Y3750D01*
X2600D01*
Y3200D01*
D02*
G37*
G36*
X18450Y3150D02*
Y2450D01*
X17350D01*
Y3150D01*
X17600Y3400D01*
X18200D01*
X18450Y3150D01*
D02*
G37*
G36*
X20350Y3150D02*
Y2450D01*
X19250D01*
Y3150D01*
X19500Y3400D01*
X20100D01*
X20350Y3150D01*
D02*
G37*
G36*
X23800Y14650D02*
X24868Y14650D01*
Y14517D01*
X25732D01*
Y14650D01*
X27050Y14650D01*
X27050Y14650D01*
X27050Y14650D01*
X27050D01*
X27167Y14641D01*
X27256Y14623D01*
X27384Y14570D01*
X27500Y14492D01*
X27598Y14394D01*
X27676Y14278D01*
X27729Y14150D01*
X27756Y14014D01*
X27756Y13944D01*
X27756Y11444D01*
X31742Y7458D01*
X34952Y7458D01*
X34955Y7461D01*
X35050Y7501D01*
X35299Y7750D01*
X35316Y7790D01*
X35437Y7900D01*
X35900Y7900D01*
X35900Y7900D01*
X35900Y7900D01*
X35900D01*
X36016Y7879D01*
X36088Y7850D01*
X36181Y7756D01*
X36232Y7634D01*
X36232Y7568D01*
X36232Y5968D01*
X36241Y5877D01*
X36311Y5708D01*
X36440Y5579D01*
X36609Y5509D01*
X36700Y5500D01*
X46300Y5500D01*
X48559Y7759D01*
X48559Y7759D01*
Y7759D01*
X48649Y7846D01*
X48831Y7967D01*
X49043Y8055D01*
X49268Y8100D01*
X49383Y8100D01*
X53780Y8100D01*
X53780Y8100D01*
X53780Y8100D01*
X53780D01*
X53897Y8091D01*
X53990Y8072D01*
X54121Y8018D01*
X54239Y7939D01*
X54339Y7839D01*
X54418Y7721D01*
X54472Y7590D01*
X54500Y7451D01*
X54500Y7380D01*
X54500Y709D01*
X32394D01*
X32381Y716D01*
X32364Y716D01*
X32358Y717D01*
X32354Y718D01*
X32352Y719D01*
X32352Y720D01*
X32351Y720D01*
X32350Y722D01*
X32347Y725D01*
X32344Y730D01*
X32338Y745D01*
X32330Y752D01*
X32249Y874D01*
X32123Y958D01*
X31975Y987D01*
X31827Y958D01*
X31701Y874D01*
X31617Y748D01*
X31588Y600D01*
X31616Y456D01*
X31619Y433D01*
X31550Y329D01*
X24000D01*
X24000Y1697D01*
X24359Y2056D01*
X27579Y2056D01*
X27636Y2112D01*
X27704Y2158D01*
X28174Y2628D01*
X28219Y2696D01*
X30150Y4627D01*
X30150Y5350D01*
X26505Y8995D01*
X26508Y8999D01*
X26537Y9147D01*
X26508Y9295D01*
X26424Y9421D01*
X26298Y9505D01*
X26202Y9524D01*
X26086Y9592D01*
X26057Y9740D01*
X25973Y9866D01*
X25847Y9950D01*
X25699Y9980D01*
X25550Y9950D01*
X25550Y9950D01*
X25353Y10147D01*
X25379Y10277D01*
X25349Y10426D01*
X25265Y10551D01*
X25140Y10635D01*
X25046Y10654D01*
X24933Y10735D01*
X24903Y10883D01*
X24819Y11009D01*
X24694Y11093D01*
X24580Y11116D01*
X24487Y11200D01*
X24458Y11348D01*
X24374Y11474D01*
X24248Y11558D01*
X24148Y11578D01*
X24034Y11654D01*
X24004Y11802D01*
X23920Y11928D01*
X23795Y12012D01*
X23695Y12031D01*
X23580Y12107D01*
X23551Y12255D01*
X23467Y12381D01*
X23341Y12465D01*
X23193Y12495D01*
X23117Y12609D01*
X23100Y12695D01*
X23100Y13950D01*
X23100Y13950D01*
X23111Y14072D01*
X23127Y14154D01*
X23179Y14281D01*
X23256Y14396D01*
X23353Y14494D01*
X23468Y14570D01*
X23596Y14623D01*
X23731Y14650D01*
X23800Y14650D01*
D02*
G37*
G36*
X2600Y1300D02*
Y750D01*
X1900D01*
X1650Y1000D01*
Y1600D01*
X1900Y1850D01*
X2600D01*
Y1300D01*
D02*
G37*
G36*
X32218Y667D02*
X32229Y648D01*
X32242Y631D01*
X32256Y616D01*
X32272Y604D01*
X32289Y593D01*
X32308Y585D01*
X32328Y580D01*
X32350Y576D01*
X32374Y575D01*
X32304Y425D01*
X32284Y424D01*
X32264Y423D01*
X32220Y416D01*
X32197Y411D01*
X32149Y397D01*
X32097Y379D01*
X32069Y368D01*
X32209Y689D01*
X32218Y667D01*
D02*
G37*
G36*
X8175Y7675D02*
X8175Y7675D01*
X8175Y7675D01*
X8175D01*
X8293Y7661D01*
X8416Y7610D01*
X8535Y7491D01*
X8600Y7335D01*
X8600Y7250D01*
X8600Y900D01*
X8600Y900D01*
X8600Y781D01*
X8509Y560D01*
X8340Y391D01*
X8134Y306D01*
X4091D01*
X3931Y372D01*
X3797Y506D01*
X3736Y653D01*
X3725Y775D01*
X3725Y775D01*
X3725Y775D01*
Y1825D01*
X3725D01*
X3725Y2675D01*
X3725D01*
Y3725D01*
X3725D01*
Y4575D01*
X3725D01*
Y5625D01*
X3725D01*
X3725Y6475D01*
Y7525D01*
X3868Y7675D01*
X8175Y7675D01*
D02*
G37*
%LPC*%
G36*
X23300Y21640D02*
X23093Y21599D01*
X22918Y21482D01*
X22801Y21307D01*
X22760Y21100D01*
Y19900D01*
X22801Y19693D01*
X22918Y19518D01*
X23093Y19401D01*
X23300Y19360D01*
X23507Y19401D01*
X23682Y19518D01*
X23799Y19693D01*
X23840Y19900D01*
Y21100D01*
X23799Y21307D01*
X23682Y21482D01*
X23507Y21599D01*
X23300Y21640D01*
D02*
G37*
G36*
X16300D02*
X16093Y21599D01*
X15918Y21482D01*
X15801Y21307D01*
X15760Y21100D01*
Y19900D01*
X15801Y19693D01*
X15918Y19518D01*
X16093Y19401D01*
X16300Y19360D01*
X16507Y19401D01*
X16682Y19518D01*
X16799Y19693D01*
X16840Y19900D01*
Y21100D01*
X16799Y21307D01*
X16682Y21482D01*
X16507Y21599D01*
X16300Y21640D01*
D02*
G37*
G36*
X18350Y18647D02*
X18276Y18632D01*
X18175Y18565D01*
X18108Y18464D01*
X18084Y18345D01*
Y18241D01*
X17957Y18199D01*
X17807Y18299D01*
X17600Y18340D01*
X17000D01*
X16793Y18299D01*
X16618Y18182D01*
X16501Y18007D01*
X16460Y17800D01*
X16501Y17593D01*
X16618Y17418D01*
X16793Y17301D01*
X17000Y17260D01*
X17600D01*
X17807Y17301D01*
X17957Y17401D01*
X18084Y17359D01*
Y17255D01*
X18108Y17136D01*
X18175Y17035D01*
X18276Y16968D01*
X18350Y16953D01*
Y17800D01*
Y18647D01*
D02*
G37*
G36*
X16250Y13878D02*
Y13350D01*
X16582D01*
Y13533D01*
X16555Y13666D01*
X16479Y13779D01*
X16366Y13855D01*
X16250Y13878D01*
D02*
G37*
G36*
X17050Y13878D02*
X16934Y13855D01*
X16821Y13779D01*
X16745Y13666D01*
X16718Y13533D01*
Y13350D01*
X17050D01*
Y13878D01*
D02*
G37*
G36*
X9000Y17450D02*
X8450D01*
Y16800D01*
X9000D01*
Y17450D01*
D02*
G37*
G36*
X4220Y13585D02*
X3530D01*
X3438Y13566D01*
X3361Y13514D01*
X3309Y13437D01*
X3290Y13345D01*
Y13299D01*
X2960D01*
Y13345D01*
X2941Y13437D01*
X2889Y13514D01*
X2812Y13566D01*
X2720Y13585D01*
X2030D01*
X1938Y13566D01*
X1861Y13514D01*
X1809Y13437D01*
X1790Y13345D01*
Y12855D01*
X1809Y12763D01*
X1861Y12686D01*
X1938Y12634D01*
X1943Y12633D01*
Y12239D01*
X1911Y12232D01*
X1810Y12165D01*
X1743Y12064D01*
X1719Y11945D01*
Y11850D01*
X2375D01*
X3031D01*
Y11945D01*
X3007Y12064D01*
X2940Y12165D01*
X2839Y12232D01*
X2807Y12239D01*
Y12633D01*
X2812Y12634D01*
X2889Y12686D01*
X2941Y12763D01*
X2960Y12855D01*
Y12901D01*
X3290D01*
Y12855D01*
X3309Y12763D01*
X3361Y12686D01*
X3438Y12634D01*
X3443Y12633D01*
Y12167D01*
X3438Y12166D01*
X3361Y12114D01*
X3309Y12037D01*
X3290Y11945D01*
Y11455D01*
X3309Y11363D01*
X3361Y11286D01*
X3427Y11241D01*
X3517Y11148D01*
X3507Y11098D01*
X3488Y11000D01*
X3517Y10852D01*
X3601Y10726D01*
X3727Y10642D01*
X3875Y10613D01*
X4023Y10642D01*
X4149Y10726D01*
X4233Y10852D01*
X4262Y11000D01*
X4243Y11098D01*
X4233Y11148D01*
X4323Y11241D01*
X4389Y11286D01*
X4441Y11363D01*
X4460Y11455D01*
Y11945D01*
X4441Y12037D01*
X4389Y12114D01*
X4312Y12166D01*
X4307Y12167D01*
Y12633D01*
X4312Y12634D01*
X4389Y12686D01*
X4441Y12763D01*
X4460Y12855D01*
Y13345D01*
X4441Y13437D01*
X4389Y13514D01*
X4312Y13566D01*
X4220Y13585D01*
D02*
G37*
G36*
X5745Y13656D02*
X5550D01*
Y13250D01*
X6056D01*
Y13345D01*
X6032Y13464D01*
X5965Y13565D01*
X5864Y13632D01*
X5745Y13656D01*
D02*
G37*
G36*
X5250D02*
X5055D01*
X4936Y13632D01*
X4835Y13565D01*
X4768Y13464D01*
X4744Y13345D01*
Y13250D01*
X5250D01*
Y13656D01*
D02*
G37*
G36*
X3031Y11550D02*
X2525D01*
Y11205D01*
X2531Y11198D01*
X2550Y11179D01*
X2525D01*
Y11144D01*
X2720D01*
X2839Y11168D01*
X2940Y11235D01*
X3007Y11336D01*
X3031Y11455D01*
Y11550D01*
D02*
G37*
G36*
X2225D02*
X1719D01*
Y11455D01*
X1743Y11336D01*
X1810Y11235D01*
X1911Y11168D01*
X2030Y11144D01*
X2225D01*
Y11179D01*
X2200D01*
X2219Y11198D01*
X2225Y11205D01*
Y11550D01*
D02*
G37*
G36*
X6056Y12950D02*
X5400D01*
X4744D01*
Y12855D01*
X4768Y12736D01*
X4835Y12635D01*
X4936Y12568D01*
X4968Y12561D01*
Y12167D01*
X4963Y12166D01*
X4886Y12114D01*
X4834Y12037D01*
X4815Y11945D01*
Y11455D01*
X4834Y11363D01*
X4886Y11286D01*
X4952Y11241D01*
X5042Y11148D01*
X5032Y11098D01*
X5013Y11000D01*
X5042Y10852D01*
X5126Y10726D01*
X5252Y10642D01*
X5400Y10613D01*
X5548Y10642D01*
X5674Y10726D01*
X5758Y10852D01*
X5787Y11000D01*
X5768Y11098D01*
X5758Y11148D01*
X5848Y11241D01*
X5914Y11286D01*
X5966Y11363D01*
X5985Y11455D01*
Y11945D01*
X5966Y12037D01*
X5914Y12114D01*
X5837Y12166D01*
X5832Y12167D01*
Y12561D01*
X5864Y12568D01*
X5965Y12635D01*
X6032Y12736D01*
X6056Y12855D01*
Y12950D01*
D02*
G37*
G36*
X2450Y7882D02*
X2267D01*
X2134Y7855D01*
X2021Y7779D01*
X1945Y7666D01*
X1922Y7550D01*
X2450D01*
Y7882D01*
D02*
G37*
%LPD*%
G36*
X3951Y11366D02*
X3954Y11344D01*
X3959Y11323D01*
X3966Y11301D01*
X3975Y11280D01*
X3986Y11259D01*
X3999Y11239D01*
X4014Y11218D01*
X4031Y11198D01*
X4050Y11179D01*
X3700D01*
X3719Y11198D01*
X3736Y11218D01*
X3751Y11239D01*
X3764Y11259D01*
X3775Y11280D01*
X3784Y11301D01*
X3791Y11323D01*
X3796Y11344D01*
X3799Y11366D01*
X3800Y11388D01*
X3950D01*
X3951Y11366D01*
D02*
G37*
G36*
X5476Y11366D02*
X5479Y11344D01*
X5484Y11323D01*
X5491Y11301D01*
X5500Y11280D01*
X5511Y11259D01*
X5524Y11239D01*
X5539Y11218D01*
X5556Y11198D01*
X5575Y11179D01*
X5225D01*
X5244Y11198D01*
X5261Y11218D01*
X5276Y11239D01*
X5289Y11259D01*
X5300Y11280D01*
X5309Y11301D01*
X5316Y11323D01*
X5321Y11344D01*
X5324Y11366D01*
X5325Y11388D01*
X5475D01*
X5476Y11366D01*
D02*
G37*
%LPC*%
G36*
X18445Y4656D02*
X18350D01*
Y4150D01*
X18756D01*
Y4345D01*
X18732Y4464D01*
X18665Y4565D01*
X18564Y4632D01*
X18445Y4656D01*
D02*
G37*
G36*
X18050D02*
X17955D01*
X17836Y4632D01*
X17735Y4565D01*
X17668Y4464D01*
X17644Y4345D01*
Y4150D01*
X18050D01*
Y4656D01*
D02*
G37*
%LPD*%
D11*
X24073Y8393D02*
X24922Y7544D01*
X21599Y8393D02*
X24073D01*
X26195Y3805D02*
Y3805D01*
X25195Y2805D02*
X25195D01*
X26195Y3805D01*
D12*
X23861Y6484D02*
X24488Y5857D01*
X22050Y4760D02*
X22094Y4716D01*
X21979Y4760D02*
X22050D01*
X21317Y4097D02*
X21979Y4760D01*
X20600Y4200D02*
Y4212D01*
X21104Y4716D01*
X27926Y4679D02*
X28947Y5700D01*
X28255Y6795D02*
X28947Y6103D01*
Y5700D02*
Y6103D01*
X27926Y4407D02*
Y4679D01*
X27868Y4350D02*
X27926Y4407D01*
X27205Y6795D02*
X27274Y6864D01*
X27696Y6795D02*
X28255D01*
X27627Y6864D02*
X27696Y6795D01*
X27274Y6864D02*
X27627D01*
X24635Y6417D02*
X25583D01*
X24998Y6761D02*
X26748D01*
X25583Y6417D02*
X26205Y5795D01*
X24568Y7191D02*
X24998Y6761D01*
X24215Y6837D02*
X24635Y6417D01*
X24429Y5923D02*
X24493D01*
X24800Y5200D02*
X25208Y4792D01*
X24438Y5200D02*
X24800D01*
X23508Y6130D02*
X24438Y5200D01*
X24215Y6837D02*
X24215D01*
X26205Y5795D02*
Y5795D01*
X24205Y3795D02*
X24274Y3864D01*
Y4217D01*
X24205Y4286D02*
X24274Y4217D01*
X24205Y4286D02*
Y4726D01*
X23154Y5777D02*
X24205Y4726D01*
X19900Y4200D02*
X20800Y5100D01*
X19600Y4200D02*
X19900D01*
X19500Y4100D02*
X19600Y4200D01*
X22800Y3400D02*
Y3400D01*
X900Y1500D02*
G03*
X1300Y1900I0J400D01*
G01*
X42600Y12200D02*
G03*
X43200Y12546I400J0D01*
G01*
X1300Y5500D02*
G03*
X900Y5900I-400J0D01*
G01*
X11600Y18600D02*
G03*
X12000Y19000I0J400D01*
G01*
X63700Y1900D02*
G03*
X64100Y1500I400J0D01*
G01*
Y5900D02*
G03*
X63700Y5500I0J-400D01*
G01*
X60900Y12200D02*
G03*
X61500Y12546I400J0D01*
G01*
X29800D02*
G03*
X30400Y12200I200J-346D01*
G01*
X26100Y18000D02*
G03*
X26500Y17600I400J0D01*
G01*
X48100Y12546D02*
G03*
X48700Y12200I200J-346D01*
G01*
X9700Y19000D02*
G03*
X10100Y18600I400J0D01*
G01*
X13400Y20400D02*
G03*
X13800Y20800I0J400D01*
G01*
X26900Y17600D02*
G03*
X27300Y18000I0J400D01*
G01*
X29800Y12546D02*
Y22000D01*
X27300D02*
X29800D01*
X61500Y12546D02*
Y21150D01*
X65000D01*
X64100Y5900D02*
X65000D01*
Y21150D01*
X0Y5900D02*
Y20400D01*
X65000Y0D02*
Y1500D01*
X26100Y18000D02*
Y22400D01*
X0Y0D02*
X65000D01*
X43200Y22000D02*
X48100D01*
X30400Y12200D02*
X42600D01*
X0Y20400D02*
X9700D01*
X12000D02*
X13400D01*
X0Y5900D02*
X900D01*
X12000Y19000D02*
Y20400D01*
X26500Y17600D02*
X26900D01*
X13800Y20800D02*
Y22400D01*
X63700Y1900D02*
Y5500D01*
X0Y0D02*
Y1500D01*
X48700Y12200D02*
X60900D01*
X0Y1500D02*
X900D01*
X48100Y12546D02*
Y22000D01*
X43200Y12546D02*
Y22000D01*
X9700Y19000D02*
Y20400D01*
X64100Y1500D02*
X65000D01*
X27300Y18000D02*
Y22000D01*
X1300Y1900D02*
Y5500D01*
X10100Y18600D02*
X11600D01*
X13800Y22400D02*
X26100D01*
D15*
X31975Y500D02*
X55300D01*
X25699Y9570D02*
Y9592D01*
X25649Y9520D02*
X25699Y9570D01*
X25649Y9249D02*
Y9520D01*
X25275Y7898D02*
X26150Y8772D01*
Y9147D01*
X25288Y8888D02*
X25649Y9249D01*
X25275Y8888D02*
X25288D01*
X9900Y11000D02*
Y11700D01*
X5400Y11000D02*
Y11700D01*
X55800Y1800D02*
X57200D01*
X57900Y2500D01*
X55800Y1000D02*
Y1800D01*
X55300Y500D02*
X55800Y1000D01*
X6900Y11917D02*
X7700Y11117D01*
X21025Y13120D02*
X21161Y13256D01*
X21950Y13954D02*
Y14000D01*
X21683Y13687D02*
X21950Y13954D01*
X21587Y13687D02*
X21683D01*
X21161Y13261D02*
X21587Y13687D01*
X21025Y13025D02*
Y13120D01*
X21161Y13256D02*
Y13261D01*
X24505Y10694D02*
X24546Y10735D01*
X23579Y11587D02*
X23646Y11654D01*
X24253Y10694D02*
X24505D01*
X2375Y11000D02*
Y11700D01*
X3875Y11000D02*
Y11700D01*
X8400Y11000D02*
Y11700D01*
X16600Y9219D02*
Y9300D01*
X7700Y11000D02*
Y11117D01*
X11400Y11700D02*
X11400Y11700D01*
Y11000D02*
Y11700D01*
X16600Y9219D02*
X17922Y7898D01*
X22300Y15000D02*
X23700D01*
X24400Y15700D02*
X25300D01*
X23700Y15000D02*
X24400Y15700D01*
X21987Y14037D02*
Y14687D01*
X22300Y15000D01*
X25275Y7898D02*
X25423Y7750D01*
X25529D01*
X23154Y11009D02*
X23579Y11435D01*
Y11587D01*
X23861Y10302D02*
X24253Y10694D01*
X17509Y9300D02*
X17922Y8888D01*
X17299Y9300D02*
X17509D01*
D16*
X39300Y8200D02*
D03*
Y6600D02*
D03*
X19800Y900D02*
D03*
Y2500D02*
D03*
X17900D02*
D03*
Y900D02*
D03*
X15700Y11600D02*
D03*
Y13200D02*
D03*
X17600Y11600D02*
D03*
Y13200D02*
D03*
X20300Y14200D02*
D03*
Y15800D02*
D03*
X57600Y6600D02*
D03*
Y8200D02*
D03*
D17*
X2600Y1300D02*
D03*
X4200D02*
D03*
Y7000D02*
D03*
X2600D02*
D03*
Y3200D02*
D03*
X4200D02*
D03*
X2600Y5100D02*
D03*
X4200D02*
D03*
D18*
X28195Y5805D02*
D03*
X27205Y6795D02*
D03*
X25205Y4795D02*
D03*
X26195Y3805D02*
D03*
X27195Y4805D02*
D03*
X26205Y5795D02*
D03*
X24205Y3795D02*
D03*
X25195Y2805D02*
D03*
D19*
X2375Y11700D02*
D03*
Y13100D02*
D03*
X25300Y15700D02*
D03*
Y14300D02*
D03*
X11400Y13100D02*
D03*
Y11700D02*
D03*
X9900Y13100D02*
D03*
Y11700D02*
D03*
X8400Y13100D02*
D03*
Y11700D02*
D03*
X6900Y13100D02*
D03*
Y11700D02*
D03*
X5400Y13100D02*
D03*
Y11700D02*
D03*
X3875Y13100D02*
D03*
Y11700D02*
D03*
X55800Y1800D02*
D03*
Y3200D02*
D03*
D20*
X37700Y6450D02*
D03*
Y8350D02*
D03*
X35700Y7400D02*
D03*
X53900D02*
D03*
X55900Y8350D02*
D03*
Y6450D02*
D03*
D21*
X24208Y1192D02*
D03*
X22192Y3208D02*
D03*
D22*
X21599Y8393D02*
D03*
D23*
X22094Y12070D02*
D03*
X22447Y11716D02*
D03*
X22801Y11363D02*
D03*
X23154Y11009D02*
D03*
X23508Y10656D02*
D03*
X23861Y10302D02*
D03*
X24215Y9949D02*
D03*
X24568Y9595D02*
D03*
X24922Y9241D02*
D03*
X25275Y8888D02*
D03*
X21104Y4716D02*
D03*
X20750Y5069D02*
D03*
X20396Y5423D02*
D03*
X20043Y5777D02*
D03*
X19689Y6130D02*
D03*
X19336Y6484D02*
D03*
X18982Y6837D02*
D03*
X18629Y7191D02*
D03*
X18275Y7544D02*
D03*
X17922Y7898D02*
D03*
D24*
X25275D02*
D03*
X24922Y7544D02*
D03*
X24568Y7191D02*
D03*
X24215Y6837D02*
D03*
X23861Y6484D02*
D03*
X23508Y6130D02*
D03*
X23154Y5777D02*
D03*
X22801Y5423D02*
D03*
X22447Y5069D02*
D03*
X22094Y4716D02*
D03*
X17922Y8888D02*
D03*
X18275Y9241D02*
D03*
X18629Y9595D02*
D03*
X18982Y9949D02*
D03*
X19336Y10302D02*
D03*
X19689Y10656D02*
D03*
X20043Y11009D02*
D03*
X20396Y11363D02*
D03*
X20750Y11716D02*
D03*
X21104Y12070D02*
D03*
D25*
X18500Y17800D02*
D03*
X19800D02*
D03*
X20450D02*
D03*
X19150D02*
D03*
D26*
X21100D02*
D03*
D27*
X15250Y5600D02*
D03*
X6750D02*
D03*
D28*
X39999Y10800D02*
D03*
X37500D02*
D03*
X35500D02*
D03*
X32999D02*
D03*
X51299D02*
D03*
X53800D02*
D03*
X55800D02*
D03*
X58299D02*
D03*
D29*
X6600Y17300D02*
D03*
D30*
X4500Y19850D02*
D03*
X8700D02*
D03*
D31*
X8300Y17600D02*
D03*
X4900D02*
D03*
D32*
X27366Y2966D02*
D03*
X26234Y1834D02*
D03*
D33*
X19600Y4000D02*
D03*
X18200Y4000D02*
D03*
D34*
X21950Y14000D02*
D03*
X23850D02*
D03*
X22900Y16000D02*
D03*
D35*
X57900Y2500D02*
D03*
X61200D02*
D03*
D63*
X9900Y15732D02*
X13615Y19447D01*
X14166D01*
X14000Y20200D02*
X14147D01*
X6900Y13100D02*
Y14300D01*
X4800Y16400D02*
Y17600D01*
Y16400D02*
X6900Y14300D01*
X27085Y3915D02*
X28152D01*
X28360Y4123D01*
X25124Y5876D02*
X27085Y3915D01*
X36500Y6900D02*
X36900Y6500D01*
X36500Y6900D02*
Y8926D01*
X36900Y6500D02*
X37550D01*
X36437Y8989D02*
X36500Y8926D01*
X15895Y8595D02*
X16003D01*
X16004Y8596D01*
X15896Y9304D02*
X15967Y9233D01*
X15824Y8524D02*
X15895Y8595D01*
X16004Y8596D02*
X16130Y8471D01*
X15967Y9011D02*
Y9233D01*
Y9011D02*
X17185Y7793D01*
X55800Y3200D02*
Y3800D01*
X55800Y3200D02*
X55800Y3200D01*
X9900Y13100D02*
Y15732D01*
X9100Y15300D02*
X14000Y20200D01*
X9100Y13100D02*
Y15300D01*
X11400Y16865D02*
X13235Y18700D01*
X11400Y13100D02*
Y16865D01*
X9100Y11050D02*
Y13100D01*
X8400D02*
X9100D01*
X19300Y13100D02*
Y14958D01*
X20142Y15800D01*
X20300D01*
X19300Y13100D02*
X19625Y12775D01*
X20425D01*
X18540Y10512D02*
Y16013D01*
X18982Y9949D02*
Y10069D01*
X18540Y10512D02*
X18752Y10300D01*
Y10299D02*
X18982Y10069D01*
X18752Y10299D02*
Y10300D01*
X18540Y16013D02*
X19353Y16826D01*
X19920Y17155D02*
X19960Y17116D01*
X19800Y17800D02*
X19920Y17680D01*
Y17155D02*
Y17680D01*
X19960Y16955D02*
Y17116D01*
X19831Y16826D02*
X19960Y16955D01*
X19353Y16826D02*
X19831D01*
X20450Y17369D02*
Y17800D01*
X20220Y17139D02*
X20450Y17369D01*
X20220Y16847D02*
Y17139D01*
X19938Y16566D02*
X20220Y16847D01*
X19461Y16566D02*
X19938D01*
X18800Y15905D02*
X19461Y16566D01*
X18985Y10533D02*
X19039Y10479D01*
X19069D01*
X18800Y10718D02*
X18985Y10533D01*
X18985D01*
X19069Y10479D02*
X19091Y10501D01*
X18800Y10718D02*
Y15905D01*
X21666Y13045D02*
Y13055D01*
X21599Y12978D02*
X21666Y13045D01*
X21599Y12799D02*
Y12978D01*
X22200Y12437D02*
Y13000D01*
X24976Y10293D02*
X24992Y10277D01*
X24604Y10293D02*
X24976D01*
X21047Y12247D02*
X21599Y12799D01*
X22739Y12116D02*
Y12561D01*
X17185Y7793D02*
X17696Y7282D01*
X17185Y7793D02*
X17185D01*
X16130Y8471D02*
X16140D01*
X25076Y5876D02*
X25124D01*
X28360Y4434D02*
X28727Y4801D01*
X28360Y4123D02*
Y4434D01*
X2375Y13100D02*
X3875D01*
X13235Y18700D02*
X14150D01*
X16140Y8471D02*
X17810Y6800D01*
X18155Y7544D02*
X18275D01*
X17893Y7282D02*
X18155Y7544D01*
X17810Y6800D02*
X18238D01*
X17696Y7282D02*
X17893D01*
X18238Y6800D02*
X18629Y7191D01*
X22688Y3208D02*
X22995Y2900D01*
X23600D02*
X24205Y3505D01*
X22995Y2900D02*
X23600D01*
X24205Y3505D02*
Y3795D01*
X22192Y3208D02*
X22688D01*
X25134Y3734D02*
Y4357D01*
X23900Y2500D02*
X25134Y3734D01*
X24850Y4641D02*
X25134Y4357D01*
X23900Y2021D02*
X24208Y1713D01*
X23900Y2021D02*
Y2500D01*
X24208Y1192D02*
Y1713D01*
X54737Y6763D02*
X55000Y6500D01*
X55850D01*
X55900Y6450D01*
X54737Y6763D02*
Y8989D01*
X37550Y6500D02*
X37600Y6450D01*
X23193Y11755D02*
Y12107D01*
X22801Y11363D02*
X23193Y11755D01*
X22447Y11824D02*
X22739Y12116D01*
X22447Y11716D02*
Y11824D01*
X22200Y12437D02*
X22270Y12367D01*
X21047Y12127D02*
Y12247D01*
X22094Y12070D02*
X22270Y12247D01*
X21047Y12127D02*
X21104Y12070D01*
X22270Y12247D02*
Y12367D01*
X24215Y9949D02*
X24260D01*
X24604Y10293D01*
X24052Y11200D02*
X24100D01*
X23508Y10656D02*
X24052Y11200D01*
D64*
X27195Y4805D02*
X28195Y5805D01*
X17475Y2725D02*
X17700Y2500D01*
X17900D01*
X19800D02*
X20000D01*
X20225Y2725D01*
D65*
X17300Y17800D02*
D03*
X22300D02*
D03*
D66*
X23300Y20500D02*
D03*
X16300D02*
D03*
D67*
X44345Y12300D02*
D03*
X46955D02*
D03*
X62645D02*
D03*
D68*
X44345Y19350D02*
D03*
X28655D02*
D03*
X46955D02*
D03*
X62645D02*
D03*
D69*
X28655Y12300D02*
D03*
D70*
X45400Y8400D02*
D03*
X45400Y15400D02*
D03*
X13500Y12200D02*
D03*
X13500Y15300D02*
D03*
D71*
X4450Y18900D02*
D03*
X8750D02*
D03*
D72*
X22942Y9736D02*
D03*
X21599Y11080D02*
D03*
X24286Y8393D02*
D03*
X22270Y10408D02*
D03*
X23614Y9065D02*
D03*
X20255Y9736D02*
D03*
X18912Y8393D02*
D03*
X19583Y9065D02*
D03*
X20927Y10408D02*
D03*
X20255Y7049D02*
D03*
X19583Y7721D02*
D03*
X22942Y7049D02*
D03*
X23614Y7721D02*
D03*
X22270Y9065D02*
D03*
X21599Y9736D02*
D03*
X22942Y8393D02*
D03*
X21599D02*
D03*
X20927Y9065D02*
D03*
X22270Y7721D02*
D03*
X20927D02*
D03*
X20255Y8393D02*
D03*
X21599Y7049D02*
D03*
X61200Y2500D02*
D03*
X6900Y600D02*
D03*
X8100D02*
D03*
X7500D02*
D03*
X6300D02*
D03*
X5700Y1200D02*
D03*
Y1800D02*
D03*
X49300Y9300D02*
D03*
Y8700D02*
D03*
X49900Y9300D02*
D03*
Y8700D02*
D03*
X31900Y7900D02*
D03*
Y8500D02*
D03*
X34900Y7900D02*
D03*
Y8500D02*
D03*
X16200Y16800D02*
D03*
Y16200D02*
D03*
Y15600D02*
D03*
X15824Y8524D02*
D03*
X34300Y8500D02*
D03*
X32500D02*
D03*
X33100D02*
D03*
X33700D02*
D03*
X25699Y9592D02*
D03*
X26150Y9147D02*
D03*
X9900Y11000D02*
D03*
X5400D02*
D03*
X1900Y7300D02*
D03*
Y6700D02*
D03*
X55800Y3900D02*
D03*
X6300Y1200D02*
D03*
Y1800D02*
D03*
Y2400D02*
D03*
X7500D02*
D03*
X8100D02*
D03*
Y1800D02*
D03*
X7500D02*
D03*
X6900Y2400D02*
D03*
Y1800D02*
D03*
X7500Y1200D02*
D03*
X8100D02*
D03*
X6900D02*
D03*
X32500Y7900D02*
D03*
X34300D02*
D03*
X33100D02*
D03*
X33700D02*
D03*
X51700Y8700D02*
D03*
X51100D02*
D03*
X52300D02*
D03*
X50500Y9300D02*
D03*
Y8700D02*
D03*
X52300Y9300D02*
D03*
X51100D02*
D03*
X51700D02*
D03*
X16800Y15600D02*
D03*
X18000D02*
D03*
X17400D02*
D03*
X16800Y16200D02*
D03*
Y16800D02*
D03*
X17400Y16200D02*
D03*
X18000D02*
D03*
Y16800D02*
D03*
X17400D02*
D03*
X17300Y13900D02*
D03*
X17900D02*
D03*
X15400D02*
D03*
X16000D02*
D03*
X20000Y13500D02*
D03*
X21666Y13055D02*
D03*
X22300Y13025D02*
D03*
X20600Y13500D02*
D03*
X24992Y10277D02*
D03*
X24546Y10735D02*
D03*
X24100Y11200D02*
D03*
X22739Y12561D02*
D03*
X23193Y12107D02*
D03*
X23646Y11654D02*
D03*
X21025Y13025D02*
D03*
X20425Y12775D02*
D03*
X29750Y5175D02*
D03*
X29198Y5252D02*
D03*
X2375Y11000D02*
D03*
X3875D02*
D03*
X8400D02*
D03*
X16600Y9300D02*
D03*
X15896Y9304D02*
D03*
X7700Y11000D02*
D03*
X9104Y11006D02*
D03*
X36437Y8989D02*
D03*
X20100Y3150D02*
D03*
X19500D02*
D03*
X18200Y3150D02*
D03*
X17600D02*
D03*
X1900Y1600D02*
D03*
Y1000D02*
D03*
Y3500D02*
D03*
Y2900D02*
D03*
Y5400D02*
D03*
Y4800D02*
D03*
X21317Y4097D02*
D03*
X20600Y4100D02*
D03*
X25076Y5876D02*
D03*
X28727Y4801D02*
D03*
X27868Y4375D02*
D03*
X27690Y5300D02*
D03*
X31975Y600D02*
D03*
X57300Y5900D02*
D03*
X57900D02*
D03*
X39000D02*
D03*
X39600D02*
D03*
X24429Y5923D02*
D03*
X11400Y11000D02*
D03*
X14166Y19447D02*
D03*
X14147Y20139D02*
D03*
X14150Y18700D02*
D03*
X17299Y9300D02*
D03*
X55436Y8989D02*
D03*
X54737Y8989D02*
D03*
X37136Y8989D02*
D03*
X55300Y11641D02*
D03*
X54287D02*
D03*
X35987D02*
D03*
X37000D02*
D03*
M02*
