M48
;Layer_Color=9474304
;FILE_FORMAT=4:3
METRIC,LZ
;TYPE=PLATED
T1F00S00C0.300
T4F00S00C0.900
%
T01
X0031975Y00006
X00612Y00025
X00081Y00024
X00075
Y00018
X00081
Y00012
Y00006
X00075
Y00012
X00069
Y00006
X00063
Y00012
X00057
Y00018
X00063
Y00024
X00069
Y00018
X00019Y00016
Y0001
Y00029
Y00035
Y00048
Y00054
Y00067
Y00073
X0002375Y0011
X0003875
X00054Y0011
X00077Y0011
X00084Y0011
X0009104Y0011006
X00099Y0011
X00114Y0011
X0015896Y0009304
X00166Y00093
X0017299
X0015824Y0008524
X0018912Y0008393
X0019583Y0009065
X0020255Y0009736
X0020927Y0010408
X002227
X0022942Y0009736
X0023614Y0009065
Y0007721
X0022942Y0008393
Y0007049
X002227Y0007721
X0020927
X0020255Y0007049
Y0008393
X0019583Y0007721
X0021599Y0008393
X002227Y0009065
X0021599Y0009736
X0020927Y0009065
X0021599Y0007049
X0021317Y0004097
X00206Y00041
X00201Y000315
X00195
X00182Y000315
X00176
X0024429Y0005923
X0025076Y0005876
X0024286Y0008393
X0024992Y0010277
X0024546Y0010735
X00241Y00112
X0023646Y0011654
X0023193Y0012107
X0022739Y0012561
X00223Y0013025
X0021666Y0013055
X0021025Y0013025
X0020425Y0012775
X00206Y00135
X002
X00179Y00139
X00173
X0016
X00154
X00162Y00156
Y00162
Y00168
X00168
Y00162
Y00156
X00174
X0018
Y00162
X00174
Y00168
X0018
X001415Y00187
X0014166Y0019447
X0014147Y0020139
X0021599Y001108
X0025699Y0009592
X002615Y0009147
X002769Y00053
X0027868Y0004375
X0028727Y0004801
X0029198Y0005252
X002975Y0005175
X00319Y00079
Y00085
X00325
X00331
X00337
Y00079
X00331
X00325
X00343
Y00085
X00349
Y00079
X0036437Y0008989
X0037136Y0008989
X0037Y0011641
X0035987
X0039Y00059
X00396
X00493Y00087
Y00093
X00499
Y00087
X00505
X00511
X00517
Y00093
X00511
X00505
X00523
Y00087
X0054737Y0008989
X0055436Y0008989
X00553Y0011641
X0054287
X00573Y00059
X00579
X00558Y00039
T04
X000445Y00189
X000875
M30
