M48
;Layer_Color=9474304
;FILE_FORMAT=4:3
METRIC,LZ
;TYPE=PLATED
T2F00S00C0.500
T3F00S00C0.800
%
G90
G05
T02
G00X001705Y00178
M15
G01X001755
M16
G00X00163Y002095
M15
G01Y002005
M16
G00X00233Y002095
M15
G01Y002005
M16
G00X002205Y00178
M15
G01X002255
M16
T03
G00X0028655Y00128
M15
G01Y00118
M16
G00X0028655Y002
M15
G01Y00187
M16
G00X0044345Y002
M15
G01Y00187
M16
G00X0046955Y002
M15
G01Y00187
M16
G00X0046955Y00128
M15
G01Y00118
M16
G00X0044345Y00128
M15
G01Y00118
M16
G00X0062645Y00128
M15
G01Y00118
M16
G00X0062645Y002
M15
G01Y00187
M16
M17
M30
